<?xml version="1.0" standalone="no"?><!DOCTYPE svg PUBLIC "-//W3C//DTD SVG 1.1//EN" "http://www.w3.org/Graphics/SVG/1.1/DTD/svg11.dtd"><svg class="icon" width="250px" height="250.00px" viewBox="0 0 1024 924" version="1.1" xmlns="http://www.w3.org/2000/svg"><path d="M0 0v1024h839.68V839.68h184.32V0H0z" fill="#2582FD" /><path d="M839.68 1024V839.68h184.32L839.68 1024z" fill="#1866D6" /><path d="M230.4 302.72h563.2v76.8H230.4z" fill="#E6F0FF" /><path d="M475.6352 207.2448h76.8v546.3424h-76.8z" fill="#E6F0FF" /><path d="M380.2752 676.7872h256v76.8h-256z" fill="#E6F0FF" /><path d="M475.6352 676.7872h76.8v76.8h-76.8z" fill="#FFFFFF" /><path d="M467.008 607.0656H194.8032L330.9056 302.72z m-153.728-76.8h35.264l-17.6384-39.424z" fill="#E6F0FF" /><path d="M829.1968 607.0656H556.992L693.0944 302.72z m-153.7408-76.8h35.264l-17.6256-39.424z" fill="#E6F0FF" /><path d="M330.9056 302.72l-34.3424 76.8h68.6976l-34.3552-76.8zM727.4368 379.52l-34.3424-76.8-34.3552 76.8h68.6976z" fill="none" /></svg>