<?xml version="1.0" standalone="no"?>
<!DOCTYPE svg PUBLIC "-//W3C//DTD SVG 20010904//EN"
 "http://www.w3.org/TR/2001/REC-SVG-20010904/DTD/svg10.dtd">
<svg version="1.0" xmlns="http://www.w3.org/2000/svg"
 width="4784.000000pt" height="3408.000000pt" viewBox="0 0 4784.000000 3408.000000"
 preserveAspectRatio="xMidYMid meet">

<g transform="translate(0.000000,3408.000000) scale(0.100000,-0.100000)"
fill="#666" stroke="none">
<path d="M4822 32118 c-58 -13 -113 -69 -142 -144 -29 -76 -33 -230 -7 -315
42 -140 159 -204 274 -148 51 25 93 75 93 112 0 26 -2 25 -47 -22 -58 -60 -90
-70 -134 -45 -43 25 -66 74 -81 167 -20 130 12 291 67 337 50 42 134 -6 159
-90 7 -25 17 -44 22 -42 9 3 7 182 -2 191 -2 2 -10 -3 -17 -13 -11 -15 -16
-16 -47 -3 -53 22 -90 26 -138 15z"/>
<path d="M5241 32120 c-18 -4 -45 -17 -60 -27 -103 -77 -94 -235 18 -303 137
-84 163 -103 181 -132 51 -83 -32 -153 -135 -113 -50 18 -89 60 -112 117 -8
21 -19 38 -24 38 -12 0 -11 -181 1 -200 9 -13 12 -12 25 5 15 19 17 19 79 2
136 -36 232 -9 276 79 37 72 20 186 -36 235 -11 9 -57 38 -104 63 -130 71
-159 118 -105 171 58 59 168 13 210 -88 25 -61 35 -44 35 58 0 97 -8 115 -35
78 -12 -17 -16 -17 -62 -1 -64 23 -111 28 -152 18z"/>
<path d="M6133 32120 c-101 -24 -162 -140 -163 -307 0 -200 78 -323 206 -323
119 0 194 106 202 285 11 239 -91 382 -245 345z m84 -62 c15 -28 18 -64 21
-233 4 -216 -4 -265 -45 -292 -19 -13 -24 -12 -41 5 -32 32 -44 136 -41 327 3
143 7 175 22 198 25 39 61 36 84 -5z"/>
<path d="M6582 32120 c-49 -11 -105 -53 -127 -93 -27 -51 -13 -56 36 -13 65
55 140 45 168 -23 22 -52 -23 -123 -91 -141 -50 -14 -48 -33 5 -47 79 -22 127
-80 127 -155 0 -57 -52 -118 -100 -118 -5 0 -32 20 -60 45 -70 63 -126 57
-118 -11 7 -62 113 -91 219 -61 169 50 232 223 123 338 l-35 35 22 20 c82 72
46 195 -65 223 -50 12 -57 12 -104 1z"/>
<path d="M7443 32120 c-101 -24 -162 -140 -163 -307 0 -200 78 -323 206 -323
119 0 194 106 202 285 11 239 -91 382 -245 345z m84 -62 c15 -28 18 -64 21
-233 4 -216 -4 -265 -45 -292 -19 -13 -24 -12 -41 5 -32 32 -44 136 -41 327 3
143 7 175 22 198 25 39 61 36 84 -5z"/>
<path d="M7867 32116 c-128 -35 -165 -165 -74 -263 l40 -43 -40 -38 c-122
-112 -50 -281 120 -282 115 0 199 76 199 179 -1 63 -14 93 -64 147 -24 26 -38
48 -32 52 61 41 84 75 84 122 0 97 -114 159 -233 126z m110 -48 c32 -36 36
-73 14 -122 -10 -24 -24 -47 -30 -51 -7 -4 -30 12 -56 38 -37 36 -45 51 -45
81 0 68 73 102 117 54z m-46 -335 c71 -64 88 -126 48 -177 -18 -23 -28 -27
-62 -24 -34 2 -45 9 -64 37 -15 23 -23 49 -23 78 0 44 32 123 50 123 6 0 28
-17 51 -37z"/>
<path d="M8323 32120 c-101 -24 -162 -140 -163 -307 0 -200 78 -323 206 -323
119 0 194 106 202 285 11 239 -91 382 -245 345z m84 -62 c15 -28 18 -64 21
-233 4 -216 -4 -265 -45 -292 -19 -13 -24 -12 -41 5 -32 32 -44 136 -41 327 3
143 7 175 22 198 25 39 61 36 84 -5z"/>
<path d="M9175 32116 c-67 -19 -118 -73 -135 -145 -35 -148 68 -272 202 -242
23 6 44 8 46 7 7 -8 -11 -54 -36 -91 -32 -47 -108 -100 -163 -115 -47 -13 -54
-40 -10 -40 47 0 155 38 202 71 138 97 198 257 154 407 -36 121 -140 180 -260
148z m97 -43 c25 -28 38 -91 38 -180 0 -59 -4 -86 -15 -97 -43 -43 -97 -22
-116 46 -16 61 -8 187 14 221 20 31 56 36 79 10z"/>
<path d="M9615 32116 c-67 -19 -118 -73 -135 -145 -35 -148 68 -272 202 -242
23 6 44 8 46 7 7 -8 -11 -54 -36 -91 -32 -47 -108 -100 -163 -115 -47 -13 -54
-40 -10 -40 47 0 155 38 202 71 138 97 198 257 154 407 -36 121 -140 180 -260
148z m97 -43 c25 -28 38 -91 38 -180 0 -59 -4 -86 -15 -97 -43 -43 -97 -22
-116 46 -16 61 -8 187 14 221 20 31 56 36 79 10z"/>
<path d="M4200 32112 c0 -5 19 -12 42 -18 65 -14 68 -25 68 -281 0 -270 -1
-273 -84 -285 -11 -2 -21 -9 -24 -15 -3 -10 45 -13 218 -13 173 0 221 3 218
13 -3 6 -13 13 -24 15 -82 12 -84 20 -84 291 0 249 3 261 68 275 23 6 42 13
42 18 0 4 -99 8 -220 8 -121 0 -220 -4 -220 -8z"/>
<path d="M6963 31620 c-27 -16 -33 -26 -33 -55 0 -48 35 -70 111 -70 81 0 125
42 103 100 -17 44 -125 60 -181 25z"/>
<path d="M8713 31620 c-27 -16 -33 -26 -33 -55 0 -48 35 -70 111 -70 81 0 125
42 103 100 -17 44 -125 60 -181 25z"/>
<path d="M4382 30818 c-58 -13 -113 -69 -142 -144 -29 -76 -33 -230 -7 -315
42 -140 159 -204 274 -148 51 25 93 75 93 112 0 26 -2 25 -47 -22 -58 -60 -90
-70 -134 -45 -43 25 -66 74 -81 167 -20 130 12 291 67 337 50 42 134 -6 159
-90 7 -25 17 -44 22 -42 9 3 7 182 -2 191 -2 2 -10 -3 -17 -13 -11 -15 -16
-16 -47 -3 -53 22 -90 26 -138 15z"/>
<path d="M4822 30818 c-58 -13 -113 -69 -142 -144 -29 -76 -33 -230 -7 -315
42 -140 159 -204 274 -148 51 25 93 75 93 112 0 26 -2 25 -47 -22 -58 -60 -90
-70 -134 -45 -43 25 -66 74 -81 167 -20 130 12 291 67 337 50 42 134 -6 159
-90 7 -25 17 -44 22 -42 9 3 7 182 -2 191 -2 2 -10 -3 -17 -13 -11 -15 -16
-16 -47 -3 -53 22 -90 26 -138 15z"/>
<path d="M5241 30820 c-18 -4 -45 -17 -60 -27 -103 -77 -94 -235 18 -303 137
-84 163 -103 181 -132 51 -83 -32 -153 -135 -113 -50 18 -89 60 -112 117 -8
21 -19 38 -24 38 -12 0 -11 -181 1 -200 9 -13 12 -12 25 5 15 19 17 19 79 2
136 -36 232 -9 276 79 37 72 20 186 -36 235 -11 9 -57 38 -104 63 -130 71
-159 118 -105 171 58 59 168 13 210 -88 25 -61 35 -44 35 58 0 97 -8 115 -35
78 -12 -17 -16 -17 -62 -1 -64 23 -111 28 -152 18z"/>
<path d="M7015 30825 c-5 -2 -22 -6 -37 -9 -55 -12 -128 -98 -128 -151 0 -22
28 -18 35 5 9 27 58 60 90 60 41 0 81 -26 96 -62 38 -92 -9 -194 -181 -394
-27 -33 -50 -62 -50 -66 0 -5 85 -8 190 -8 l189 0 24 78 c13 42 20 79 15 80
-4 2 -22 -8 -39 -22 -28 -24 -38 -26 -126 -26 l-96 0 19 22 c10 13 47 54 81
91 78 85 123 173 123 236 0 59 -34 119 -80 142 -35 17 -106 31 -125 24z"/>
<path d="M7443 30820 c-101 -24 -162 -140 -163 -307 0 -200 78 -323 206 -323
119 0 194 106 202 285 11 239 -91 382 -245 345z m84 -62 c15 -28 18 -64 21
-233 4 -216 -4 -265 -45 -292 -19 -13 -24 -12 -41 5 -32 32 -44 136 -41 327 3
143 7 175 22 198 25 39 61 36 84 -5z"/>
<path d="M6146 30803 c-3 -10 -35 -126 -72 -258 -73 -266 -89 -311 -110 -319
-35 -13 -10 -26 51 -26 49 0 65 3 65 14 0 7 -10 16 -21 19 -19 5 -21 11 -16
49 4 24 11 60 17 81 l11 38 62 -3 61 -3 18 -55 c25 -81 23 -108 -7 -116 -54
-13 -20 -24 75 -24 79 0 100 3 100 14 0 8 -6 16 -13 19 -8 3 -49 129 -97 296
-69 242 -86 291 -101 291 -10 0 -20 -8 -23 -17z m34 -350 c0 -9 -16 -13 -49
-13 l-50 0 20 73 c11 39 23 81 26 92 4 14 13 -4 29 -60 13 -44 24 -86 24 -92z"/>
<path d="M38950 29677 c-344 -121 -627 -222 -629 -223 -2 -2 7 -19 19 -39 17
-28 28 -36 44 -32 11 3 57 14 101 26 165 44 285 38 364 -20 81 -58 76 10 79
-939 4 -1020 3 -1026 -85 -1099 -62 -51 -146 -72 -323 -79 l-155 -7 -3 -37 -3
-38 910 0 911 0 0 40 0 40 -93 0 c-205 0 -329 46 -378 141 -34 67 -38 235 -39
1392 l0 1097 -47 -1 c-35 -1 -218 -61 -673 -222z"/>
<path d="M41540 29677 c-344 -121 -627 -222 -629 -223 -2 -2 7 -19 19 -39 17
-28 28 -36 44 -32 11 3 57 14 101 26 165 44 285 38 364 -20 81 -58 76 10 79
-939 4 -1020 3 -1026 -85 -1099 -62 -51 -146 -72 -323 -79 l-155 -7 -3 -37 -3
-38 910 0 911 0 0 40 0 40 -93 0 c-205 0 -329 46 -378 141 -34 67 -38 235 -39
1392 l0 1097 -47 -1 c-35 -1 -218 -61 -673 -222z"/>
<path d="M30820 29807 l0 -34 118 -7 c135 -8 211 -26 266 -64 57 -39 75 -70
87 -142 6 -41 9 -439 7 -1090 -3 -982 -4 -1027 -22 -1063 -44 -89 -138 -128
-323 -135 l-133 -5 0 -38 0 -39 878 0 c497 0 934 4 1010 10 307 24 655 112
877 223 368 184 613 497 681 872 19 104 19 327 0 435 -93 526 -519 917 -1139
1045 -287 59 -270 58 -1329 62 l-978 4 0 -34z m1585 -127 c164 -12 236 -23
325 -52 341 -108 570 -442 620 -906 18 -164 8 -466 -20 -602 -107 -522 -395
-772 -890 -774 -151 -1 -210 11 -260 53 -26 22 -33 36 -40 91 -6 37 -10 531
-10 1133 l0 1067 68 0 c37 0 130 -5 207 -10z"/>
<path d="M34620 29805 c0 -21 5 -35 13 -35 82 -2 258 -22 295 -34 26 -9 65
-30 86 -48 76 -62 71 16 74 -1133 3 -1094 2 -1121 -44 -1182 -48 -63 -182
-103 -348 -103 l-76 0 0 -41 0 -40 1033 4 c1089 4 1086 4 1335 52 272 52 520
171 650 309 118 127 157 229 150 395 -4 98 -7 112 -43 186 -29 61 -55 97 -109
150 -136 133 -312 209 -661 284 -107 24 -125 30 -100 36 233 55 322 84 445
144 118 57 234 165 275 254 132 289 -79 621 -480 755 -223 75 -355 82 -1516
82 l-979 0 0 -35z m1555 -125 c152 -15 236 -35 333 -81 155 -74 241 -188 264
-349 36 -253 -97 -447 -370 -541 -68 -23 -223 -46 -379 -54 l-123 -7 0 521 0
521 83 0 c45 0 131 -5 192 -10z m70 -1200 c263 -29 425 -104 532 -245 83 -108
114 -204 114 -342 -1 -289 -219 -489 -592 -544 -153 -22 -279 0 -343 59 -56
53 -56 49 -56 587 l0 495 128 0 c70 0 168 -5 217 -10z"/>
<path d="M4461 29569 c-19 -33 -65 -90 -102 -128 l-68 -68 29 -21 29 -22 48
44 47 43 58 -51 c32 -28 58 -54 58 -58 0 -13 -131 -48 -238 -65 l-102 -16 20
-31 c21 -33 37 -36 98 -22 l32 8 0 -186 0 -186 35 0 c31 0 35 3 35 25 l0 25
189 0 c189 0 190 0 193 -22 2 -18 11 -24 36 -26 l32 -3 0 185 0 186 -242 2
-243 3 60 18 c33 10 84 27 113 39 l52 20 53 -21 c67 -27 165 -49 254 -57 l71
-7 16 31 c9 17 16 33 16 35 0 2 -37 7 -83 10 -82 6 -211 31 -234 45 -8 5 13
34 65 88 42 44 85 95 95 112 l18 32 -185 0 c-102 0 -186 3 -186 7 0 4 12 19
26 34 l26 27 -30 16 c-17 9 -37 16 -44 16 -7 0 -28 -28 -47 -61z m300 -117
c-23 -33 -104 -102 -119 -102 -14 0 -152 111 -152 121 0 5 66 9 146 9 l145 0
-20 -28z m-163 -364 l3 -38 -80 0 -81 0 0 40 0 41 78 -3 77 -3 3 -37z m222 2
l0 -40 -80 0 -80 0 0 33 c0 19 3 37 7 40 3 4 39 7 80 7 l73 0 0 -40z m-220
-135 l0 -35 -80 0 -80 0 0 35 0 35 80 0 80 0 0 -35z m220 0 l0 -35 -80 0 -80
0 0 35 0 35 80 0 80 0 0 -35z"/>
<path d="M5467 29614 c-27 -15 -28 -16 -13 -39 9 -14 16 -27 16 -30 0 -3 -65
-5 -145 -5 l-145 0 0 -55 0 -55 35 0 c32 0 35 2 35 30 l0 30 91 0 c98 0 96 2
52 -57 l-24 -33 -100 0 -99 0 0 -29 0 -29 75 5 c45 4 75 2 75 -4 0 -5 -14 -22
-30 -38 -36 -35 -32 -38 70 -55 41 -7 81 -16 89 -20 23 -13 -81 -30 -179 -30
l-90 0 18 -36 17 -36 70 7 c87 8 196 32 249 55 l41 17 110 -38 c61 -20 117
-40 126 -44 10 -4 19 3 27 20 7 14 12 30 12 34 0 8 -74 33 -179 61 l-44 12 49
49 49 50 63 -6 62 -7 0 31 0 31 -202 0 -201 0 23 25 23 24 -24 20 -24 20 163
1 162 0 0 -30 c0 -28 3 -30 35 -30 l35 0 0 55 0 55 -143 0 -142 0 -25 45 c-14
25 -27 45 -30 45 -3 -1 -18 -8 -33 -16z m161 -276 c-2 -6 -20 -24 -39 -40 -33
-27 -36 -27 -99 -18 -36 6 -78 13 -93 16 l-29 6 23 24 c21 22 29 24 132 24 80
0 108 -3 105 -12z"/>
<path d="M6140 29460 l0 -120 250 0 250 0 0 120 0 120 -250 0 -250 0 0 -120z
m430 0 l0 -60 -180 0 -180 0 0 60 0 60 180 0 180 0 0 -60z"/>
<path d="M7867 29516 c-128 -35 -165 -165 -74 -263 l40 -43 -40 -38 c-122
-112 -50 -281 120 -282 115 0 199 76 199 179 -1 63 -14 93 -64 147 -24 26 -38
48 -32 52 61 41 84 75 84 122 0 97 -114 159 -233 126z m110 -48 c32 -36 36
-73 14 -122 -10 -24 -24 -47 -30 -51 -7 -4 -30 12 -56 38 -37 36 -45 51 -45
81 0 68 73 102 117 54z m-46 -335 c71 -64 88 -126 48 -177 -18 -23 -28 -27
-62 -24 -34 2 -45 9 -64 37 -15 23 -23 49 -23 78 0 44 32 123 50 123 6 0 28
-17 51 -37z"/>
<path d="M8310 29486 c-99 -45 -130 -72 -68 -61 65 12 68 2 68 -233 0 -230 -5
-251 -57 -264 -71 -19 -30 -28 122 -28 97 0 155 4 155 10 0 6 -8 10 -18 10
-10 0 -28 7 -40 16 -22 15 -22 17 -22 305 l0 289 -22 -1 c-13 0 -66 -20 -118
-43z"/>
<path d="M8895 29516 c-116 -28 -223 -116 -273 -224 -34 -75 -37 -202 -5 -272
38 -85 103 -130 188 -130 122 0 204 86 205 213 0 70 -25 125 -72 159 -27 19
-46 23 -105 23 -42 0 -73 4 -73 10 0 6 9 28 19 50 24 54 96 116 160 139 28 10
51 24 51 32 0 17 -27 17 -95 0z m-46 -307 c25 -41 35 -112 25 -185 -13 -106
-76 -132 -119 -48 -16 31 -20 59 -20 135 0 110 9 129 61 129 28 0 38 -6 53
-31z"/>
<path d="M9202 29520 c-49 -11 -105 -53 -127 -93 -27 -51 -13 -56 36 -13 65
55 140 45 168 -23 22 -52 -23 -123 -91 -141 -50 -14 -48 -33 5 -47 79 -22 127
-80 127 -155 0 -57 -52 -118 -100 -118 -5 0 -32 20 -60 45 -70 63 -126 57
-118 -11 7 -62 113 -91 219 -61 169 50 232 223 123 338 l-35 35 22 20 c82 72
46 195 -65 223 -50 12 -57 12 -104 1z"/>
<path d="M9620 29486 c-99 -45 -130 -72 -68 -61 65 12 68 2 68 -233 0 -230 -5
-251 -57 -264 -71 -19 -30 -28 122 -28 97 0 155 4 155 10 0 6 -8 10 -18 10
-10 0 -28 7 -40 16 -22 15 -22 17 -22 305 l0 289 -22 -1 c-13 0 -66 -20 -118
-43z"/>
<path d="M10515 29525 c-5 -2 -22 -6 -37 -9 -55 -12 -128 -98 -128 -151 0 -22
28 -18 35 5 9 27 58 60 90 60 41 0 81 -26 96 -62 38 -92 -9 -194 -181 -394
-27 -33 -50 -62 -50 -66 0 -5 85 -8 190 -8 l189 0 24 78 c13 42 20 79 15 80
-4 2 -22 -8 -39 -22 -28 -24 -38 -26 -126 -26 l-96 0 19 22 c10 13 47 54 81
91 78 85 123 173 123 236 0 59 -34 119 -80 142 -35 17 -106 31 -125 24z"/>
<path d="M10943 29520 c-101 -24 -162 -140 -163 -307 0 -200 78 -323 206 -323
119 0 194 106 202 285 11 239 -91 382 -245 345z m84 -62 c15 -28 18 -64 21
-233 4 -216 -4 -265 -45 -292 -19 -13 -24 -12 -41 5 -32 32 -44 136 -41 327 3
143 7 175 22 198 25 39 61 36 84 -5z"/>
<path d="M11395 29525 c-5 -2 -22 -6 -37 -9 -55 -12 -128 -98 -128 -151 0 -22
28 -18 35 5 9 27 58 60 90 60 41 0 81 -26 96 -62 38 -92 -9 -194 -181 -394
-27 -33 -50 -62 -50 -66 0 -5 85 -8 190 -8 l189 0 24 78 c13 42 20 79 15 80
-4 2 -22 -8 -39 -22 -28 -24 -38 -26 -126 -26 l-96 0 19 22 c10 13 47 54 81
91 78 85 123 173 123 236 0 59 -34 119 -80 142 -35 17 -106 31 -125 24z"/>
<path d="M11810 29486 c-99 -45 -130 -72 -68 -61 65 12 68 2 68 -233 0 -230
-5 -251 -57 -264 -71 -19 -30 -28 122 -28 97 0 155 4 155 10 0 6 -8 10 -18 10
-10 0 -28 7 -40 16 -22 15 -22 17 -22 305 l0 289 -22 -1 c-13 0 -66 -20 -118
-43z"/>
<path d="M6000 29235 l0 -35 105 7 c121 7 117 12 85 -89 -11 -34 -20 -66 -20
-70 0 -5 91 -8 201 -8 l202 0 -7 -47 c-3 -26 -13 -57 -21 -70 -14 -21 -23 -23
-100 -23 -48 0 -85 -4 -85 -10 0 -5 8 -25 17 -44 12 -27 21 -35 37 -31 12 2
50 7 86 10 73 7 94 16 116 50 13 21 44 170 44 217 0 16 -18 18 -198 20 l-198
3 14 49 14 48 244 -3 244 -4 0 33 0 32 -390 0 -390 0 0 -35z"/>
<path d="M6970 29180 l0 -60 60 0 60 0 0 60 0 60 -60 0 -60 0 0 -60z"/>
<path d="M9940 29115 l0 -45 170 0 170 0 0 45 0 45 -170 0 -170 0 0 -45z"/>
<path d="M5480 29125 l0 -25 -160 0 -160 0 0 -30 0 -30 122 0 121 0 -22 -23
c-27 -30 -172 -104 -229 -118 l-42 -10 22 -29 c12 -17 28 -30 35 -30 20 0 171
76 213 107 19 15 50 40 68 56 l32 31 0 -108 0 -107 33 3 32 3 -4 103 c-2 56
-1 102 1 102 3 0 21 -15 41 -33 53 -51 120 -92 204 -127 l76 -32 23 29 c13 15
23 31 24 34 0 3 -37 18 -83 33 -46 15 -112 46 -147 69 l-65 42 128 3 127 3 0
29 0 30 -164 0 -163 0 5 25 c4 23 1 25 -32 25 -32 0 -36 -3 -36 -25z"/>
<path d="M6970 28960 l0 -60 60 0 60 0 0 60 0 60 -60 0 -60 0 0 -60z"/>
<path d="M11526 24935 c-27 -13 -57 -26 -67 -28 -17 -5 -15 -12 21 -74 21 -38
46 -86 55 -107 l16 -39 -406 5 -406 5 3 -74 3 -73 870 0 870 0 3 72 3 73 -373
-3 -373 -4 -38 79 c-55 110 -106 193 -120 192 -7 0 -34 -11 -61 -24z"/>
<path d="M17883 24919 l-61 -40 66 -83 c37 -46 78 -102 91 -126 l23 -42 -436
4 -436 3 0 -80 0 -80 405 3 405 3 0 -130 0 -131 -302 0 -303 0 0 -455 0 -455
88 0 87 0 0 385 0 385 215 0 216 0 -2 -477 -1 -478 89 -3 88 -3 0 478 0 478
208 3 207 2 0 -273 c0 -331 11 -307 -139 -307 -117 0 -111 9 -67 -95 14 -33
26 -68 26 -77 0 -9 4 -19 8 -22 18 -11 181 26 239 54 101 50 100 43 107 488
l7 372 -301 0 -300 0 0 130 0 131 405 -3 405 -3 0 80 0 80 -367 -3 c-203 -2
-406 -2 -453 0 l-85 3 67 38 c56 32 66 42 59 56 -30 55 -174 231 -190 231 -3
0 -34 -18 -68 -41z"/>
<path d="M30737 24919 l-67 -42 30 -51 c17 -28 52 -93 78 -143 25 -51 50 -93
53 -93 4 0 42 18 84 41 l76 41 -37 67 c-60 107 -128 214 -139 218 -5 1 -40
-16 -78 -38z"/>
<path d="M24679 24943 c0 -5 -1 -136 -2 -292 l-2 -283 -90 -33 c-49 -18 -101
-36 -114 -40 l-24 -7 7 226 7 226 -81 0 -81 0 7 -250 7 -249 -29 -12 c-16 -6
-64 -20 -106 -32 -43 -12 -78 -25 -78 -30 0 -4 16 -39 35 -77 l35 -70 48 24
c26 13 57 27 70 30 l22 7 0 -363 c0 -234 4 -377 11 -403 6 -22 28 -56 48 -76
49 -49 70 -51 481 -47 362 4 370 5 427 60 32 31 84 141 97 204 7 29 5 31 -36
43 -24 7 -62 23 -86 36 -30 17 -44 20 -47 12 -2 -7 -11 -41 -20 -77 -23 -88
-39 -116 -76 -129 -43 -15 -559 -15 -592 0 -13 6 -32 25 -43 42 -18 30 -19 58
-22 388 -3 336 -2 357 15 364 39 16 204 75 209 75 3 0 4 -158 2 -350 l-3 -350
83 0 82 0 0 378 0 379 118 35 117 35 3 -214 c1 -117 -1 -228 -6 -246 -9 -39
-56 -65 -131 -74 -29 -3 -54 -9 -56 -13 -6 -9 63 -165 73 -164 39 7 133 43
174 68 93 56 92 53 100 481 3 203 5 371 4 372 -1 1 -80 -24 -176 -56 -96 -33
-185 -62 -197 -66 l-23 -6 0 265 0 266 -80 0 c-44 0 -80 -3 -81 -7z"/>
<path d="M43955 24922 c-17 -15 -44 -37 -60 -49 l-30 -22 61 -63 c34 -35 78
-85 97 -111 20 -26 39 -48 42 -48 9 -1 125 84 125 91 0 17 -91 121 -171 197
l-34 32 -30 -27z"/>
<path d="M36681 24718 l4 -213 -147 4 -148 3 0 -79 0 -80 126 5 127 5 -8 -49
c-28 -192 -151 -467 -264 -596 -23 -25 -41 -49 -41 -52 0 -7 112 -116 119
-116 20 1 178 256 211 340 7 19 18 40 23 45 6 6 7 -135 3 -397 l-7 -408 79 0
80 0 -5 463 c-4 429 -3 461 12 442 24 -29 91 -163 105 -212 7 -24 15 -43 17
-43 2 0 34 18 70 40 36 21 70 41 75 42 6 2 -2 28 -17 58 -36 72 -145 259 -154
264 -4 3 -30 -13 -59 -35 l-52 -40 0 126 0 125 135 0 135 0 0 76 0 77 -132 -4
-133 -4 1 213 1 212 -79 0 -80 0 3 -212z"/>
<path d="M43550 24888 c-49 -195 -202 -512 -313 -650 -38 -47 -46 -63 -36 -69
8 -5 17 -9 21 -9 3 0 31 -23 62 -50 l55 -51 15 23 c8 13 33 55 55 93 l41 70 0
-562 0 -563 80 0 79 0 3 83 3 82 483 -1 482 0 0 79 0 79 -235 -8 -235 -7 0
132 0 131 180 0 180 0 0 65 0 65 -180 0 -180 0 0 130 0 129 180 -6 180 -6 0
71 0 72 -180 0 -180 0 0 131 0 131 210 -7 210 -8 0 72 0 71 -446 0 -446 0 7
28 c3 15 29 74 56 131 28 57 49 104 47 105 -8 5 -176 66 -181 66 -3 0 -11 -19
-17 -42z m390 -548 l0 -130 -165 0 -165 0 0 123 c0 68 3 127 7 130 3 4 78 7
165 7 l158 0 0 -130z m0 -390 l0 -130 -165 0 -165 0 0 123 c0 68 3 127 7 130
3 4 78 7 165 7 l158 0 0 -130z m0 -390 l0 -130 -162 2 -163 3 -3 128 -3 127
166 0 165 0 0 -130z"/>
<path d="M23797 24645 l6 -255 -121 0 -122 0 0 -76 0 -75 120 7 120 7 -2 -344
-3 -344 -132 -39 -131 -39 34 -67 c19 -37 34 -72 34 -78 0 -23 21 -20 106 18
49 22 180 70 291 107 l201 67 7 79 c4 43 6 80 4 81 -2 2 -49 -14 -104 -34 -55
-21 -110 -41 -122 -45 l-23 -6 0 322 0 322 115 -7 115 -7 0 75 0 76 -116 0
-116 0 4 255 3 255 -87 0 -87 0 6 -255z"/>
<path d="M4864 24608 l1 -283 -247 2 -248 2 0 -75 0 -76 248 4 247 3 0 -290 0
-290 -97 -27 c-92 -25 -373 -89 -450 -102 l-37 -7 41 -77 c23 -42 45 -81 49
-86 4 -5 45 8 91 27 83 36 354 117 390 117 18 0 18 -7 12 -145 l-7 -145 84 0
84 0 -2 862 -3 863 -78 3 -78 3 0 -283z"/>
<path d="M5308 24883 c-2 -5 -1 -354 2 -778 6 -852 1 -801 70 -858 48 -41 90
-47 320 -47 285 0 307 10 384 173 52 112 53 114 12 121 -20 4 -61 20 -92 36
-31 17 -57 30 -59 30 -1 0 -6 -15 -9 -34 -15 -77 -39 -140 -63 -162 -25 -23
-32 -24 -165 -24 -157 0 -197 11 -222 59 -14 25 -16 78 -15 343 l0 313 301
148 300 148 -48 52 c-27 29 -57 63 -65 77 l-17 25 -28 -22 c-107 -84 -234
-169 -325 -217 -58 -31 -109 -56 -112 -56 -4 0 -7 153 -7 340 l0 340 -79 0
c-44 0 -81 -3 -83 -7z"/>
<path d="M37150 24733 l0 -82 33 7 c42 9 832 9 875 0 l33 -8 -3 80 -3 80 -468
3 -467 2 0 -82z"/>
<path d="M42855 24756 l-60 -53 112 -117 c61 -64 133 -145 160 -181 26 -35 50
-63 53 -62 3 1 31 30 64 64 l58 62 -163 171 c-89 93 -163 170 -163 170 -1 0
-28 -24 -61 -54z"/>
<path d="M30000 24478 l0 -78 250 0 250 0 0 -87 c0 -136 -19 -348 -39 -449
-37 -180 -136 -356 -283 -502 -45 -46 -107 -99 -135 -118 -29 -19 -53 -39 -53
-43 0 -4 11 -13 25 -19 14 -6 45 -30 70 -53 l46 -42 42 39 c208 192 280 277
345 402 55 106 78 171 106 307 l23 110 347 3 346 2 0 -27 c-1 -16 -11 -134
-24 -264 -20 -206 -26 -241 -46 -274 -36 -58 -90 -77 -237 -83 -68 -3 -123 -7
-123 -9 0 -2 9 -21 20 -43 11 -22 25 -61 31 -88 l10 -49 97 14 c141 19 251 49
296 81 76 53 82 78 131 567 14 143 28 275 31 293 l6 32 -438 0 -439 0 3 150 3
150 545 0 544 0 0 78 0 77 -875 0 -875 0 0 -77z"/>
<path d="M11040 24105 l0 -285 255 0 255 0 0 -235 c0 -156 -4 -243 -12 -259
-14 -33 -60 -46 -160 -46 -43 0 -78 -3 -78 -6 0 -3 11 -24 24 -47 13 -23 29
-59 36 -81 l12 -38 58 6 c75 9 182 38 214 60 59 38 61 45 66 356 l5 285 245 3
245 2 0 285 0 285 -582 0 -583 0 0 -285z m998 3 l3 -148 -416 0 -415 0 0 150
0 150 413 -2 412 -3 3 -147z"/>
<path d="M37070 24220 l0 -75 235 4 235 3 -2 -398 -3 -398 -25 -13 c-14 -7
-64 -15 -111 -19 l-87 -6 23 -56 c12 -31 26 -72 30 -90 l7 -34 51 7 c138 19
222 54 252 106 19 32 20 55 23 467 l3 432 239 0 240 0 0 73 0 72 -555 0 -555
0 0 -75z"/>
<path d="M43065 24018 c-3 -7 -21 -60 -40 -118 -38 -110 -144 -336 -213 -454
l-40 -69 81 -54 c44 -29 82 -53 83 -53 10 0 274 654 274 678 0 6 -16 18 -36
27 -19 8 -48 24 -64 35 -33 23 -39 24 -45 8z"/>
<path d="M37870 23903 c-36 -25 -66 -49 -68 -54 -2 -4 11 -30 29 -56 59 -86
156 -262 189 -343 l32 -79 86 46 c48 26 89 48 91 49 7 6 -271 469 -288 478 -3
2 -35 -17 -71 -41z"/>
<path d="M37210 23838 c-41 -132 -95 -255 -153 -353 -26 -42 -47 -80 -47 -84
0 -6 139 -71 152 -71 11 0 55 90 131 267 37 84 80 179 97 213 l30 60 -22 9
c-13 5 -51 20 -85 35 -34 14 -64 26 -67 26 -2 0 -19 -46 -36 -102z"/>
<path d="M11170 23725 c-76 -99 -223 -232 -420 -382 -2 -2 26 -34 62 -70 l67
-67 147 140 c81 76 185 175 232 219 l83 80 -65 67 -65 66 -41 -53z"/>
<path d="M11930 23682 c-25 -31 -45 -60 -45 -63 0 -3 56 -52 125 -109 69 -57
169 -144 223 -193 l98 -90 60 59 c32 32 59 64 59 70 0 7 -27 37 -61 68 -81 75
-389 316 -403 315 -6 0 -31 -26 -56 -57z"/>
<path d="M35267 21072 c-70 -30 -126 -60 -124 -66 2 -7 24 -10 55 -8 42 3 52
1 61 -16 7 -14 11 -122 11 -310 0 -330 0 -328 -78 -339 -26 -3 -42 -11 -42
-19 0 -11 38 -14 205 -14 176 0 205 2 205 15 0 10 -10 15 -28 15 -15 0 -38 7
-50 16 l-22 15 0 385 0 384 -32 -1 c-18 0 -90 -26 -161 -57z"/>
<path d="M35847 21072 c-70 -30 -126 -60 -124 -66 2 -7 24 -10 55 -8 42 3 52
1 61 -16 7 -14 11 -122 11 -310 0 -330 0 -328 -78 -339 -26 -3 -42 -11 -42
-19 0 -11 38 -14 205 -14 176 0 205 2 205 15 0 10 -10 15 -28 15 -15 0 -38 7
-50 16 l-22 15 0 385 0 384 -32 -1 c-18 0 -90 -26 -161 -57z"/>
<path d="M36599 21108 c-46 -86 -377 -813 -373 -820 3 -4 42 -8 88 -8 l83 0
191 415 c106 228 192 420 192 425 0 6 -36 10 -85 10 -77 0 -85 -2 -96 -22z"/>
<path d="M38180 21115 c-61 -20 -115 -67 -148 -129 -23 -44 -27 -63 -27 -136
0 -75 3 -91 29 -137 41 -75 91 -107 175 -111 45 -3 79 1 104 11 45 19 46 12
12 -61 -50 -109 -116 -167 -234 -208 -49 -17 -67 -28 -69 -43 -4 -25 7 -26
103 -6 199 42 363 189 411 370 18 67 18 199 -1 262 -19 65 -74 136 -131 169
-56 33 -155 41 -224 19z m163 -94 c25 -57 37 -263 18 -310 -13 -29 -47 -51
-82 -51 -36 0 -76 51 -89 116 -16 74 -7 221 15 264 34 66 104 56 138 -19z"/>
<path d="M38767 21072 c-70 -30 -126 -60 -124 -66 2 -7 24 -10 55 -8 42 3 52
1 61 -16 7 -14 11 -122 11 -310 0 -330 0 -328 -78 -339 -26 -3 -42 -11 -42
-19 0 -11 38 -14 205 -14 176 0 205 2 205 15 0 10 -10 15 -28 15 -15 0 -38 7
-50 16 l-22 15 0 385 0 384 -32 -1 c-18 0 -90 -26 -161 -57z"/>
<path d="M39340 21115 c-94 -29 -150 -102 -150 -194 0 -69 19 -111 75 -165
l46 -45 -60 -58 c-50 -49 -61 -66 -70 -110 -31 -151 67 -254 241 -254 110 0
188 45 232 133 53 106 24 224 -75 311 l-49 43 45 32 c59 41 85 85 85 142 0
132 -160 214 -320 165z m157 -57 c36 -33 49 -89 33 -140 -13 -47 -46 -98 -61
-98 -15 0 -99 81 -115 111 -54 105 60 206 143 127z m-60 -443 c106 -93 124
-213 41 -265 -84 -53 -178 25 -178 147 1 65 45 163 74 163 6 0 34 -20 63 -45z"/>
<path d="M41100 21121 c-82 -27 -131 -73 -165 -157 -18 -43 -21 -61 -12 -66
18 -12 20 -10 46 31 60 98 189 98 243 1 15 -28 19 -49 15 -105 -6 -111 -51
-189 -236 -410 l-93 -110 253 -3 c139 -1 256 1 259 5 4 5 19 50 34 102 32 111
24 138 -24 79 -36 -44 -68 -51 -215 -46 l-100 3 86 90 c157 167 218 270 219
373 0 129 -82 211 -220 218 -36 2 -76 0 -90 -5z"/>
<path d="M41685 21114 c-118 -43 -185 -191 -185 -409 0 -210 63 -352 178 -401
47 -20 136 -20 182 -1 77 34 148 140 170 256 28 147 3 347 -54 445 -63 108
-178 151 -291 110z m118 -46 c14 -13 31 -39 38 -58 18 -50 25 -473 9 -562 -13
-75 -46 -122 -82 -116 -66 10 -91 141 -86 447 3 233 12 275 61 299 31 15 33
15 60 -10z"/>
<path d="M42270 21121 c-82 -27 -131 -73 -165 -157 -18 -43 -21 -61 -12 -66
18 -12 20 -10 46 31 60 98 189 98 243 1 15 -28 19 -49 15 -105 -6 -111 -51
-189 -236 -410 l-93 -110 253 -3 c139 -1 256 1 259 5 4 5 19 50 34 102 32 111
24 138 -24 79 -36 -44 -68 -51 -215 -46 l-100 3 86 90 c157 167 218 270 219
373 0 129 -82 211 -220 218 -36 2 -76 0 -90 -5z"/>
<path d="M42847 21072 c-70 -30 -126 -60 -124 -66 2 -7 24 -10 55 -8 42 3 52
1 61 -16 7 -14 11 -122 11 -310 0 -330 0 -328 -78 -339 -26 -3 -42 -11 -42
-19 0 -11 38 -14 205 -14 176 0 205 2 205 15 0 10 -10 15 -28 15 -15 0 -38 7
-50 16 l-22 15 0 385 0 384 -32 -1 c-18 0 -90 -26 -161 -57z"/>
<path d="M33898 21114 c-16 -16 -7 -34 17 -34 14 0 29 -8 35 -20 7 -12 9 -137
8 -362 l-3 -343 -32 -15 c-18 -8 -33 -21 -33 -27 0 -10 39 -13 165 -13 190 0
245 14 310 78 150 148 149 530 -2 662 -70 62 -110 73 -293 78 -91 2 -168 1
-172 -4z m313 -77 c80 -54 114 -149 114 -322 -1 -158 -27 -249 -90 -312 -44
-45 -88 -56 -113 -31 -9 9 -12 97 -12 334 0 177 3 329 6 338 9 23 55 20 95 -7z"/>
<path d="M34486 21111 c-11 -17 0 -28 34 -34 21 -5 32 -14 37 -34 5 -15 8
-170 8 -343 0 -344 -2 -356 -56 -367 -16 -3 -29 -12 -29 -20 0 -12 32 -14 208
-11 231 3 260 10 308 73 76 100 41 301 -58 339 -15 6 -28 13 -28 16 1 3 15 14
33 25 45 28 67 78 67 153 0 100 -32 153 -115 188 -50 21 -398 34 -409 15z
m321 -68 c48 -31 69 -152 37 -218 -18 -39 -45 -59 -91 -68 l-33 -6 0 140 c0
77 4 149 10 159 11 20 38 17 77 -7z m10 -368 c54 -36 78 -148 51 -237 -21 -70
-94 -110 -132 -72 -13 13 -16 43 -16 176 l0 161 36 -6 c20 -3 47 -13 61 -22z"/>
<path d="M36827 21113 c-4 -3 -7 -53 -7 -110 0 -81 3 -103 14 -103 8 0 16 16
20 41 14 86 52 119 139 119 l27 0 0 -345 c0 -332 -1 -346 -20 -365 -11 -11
-29 -20 -40 -20 -11 0 -20 -7 -20 -15 0 -13 25 -15 165 -15 140 0 165 2 165
15 0 8 -8 15 -18 15 -10 0 -28 9 -40 20 -22 21 -22 24 -22 365 l0 345 28 0
c86 0 124 -33 138 -119 4 -25 12 -41 21 -41 11 0 13 20 11 108 l-3 107 -276 3
c-151 1 -278 -1 -282 -5z"/>
<path d="M39710 20725 l0 -35 585 0 585 0 0 35 0 35 -585 0 -585 0 0 -35z"/>
<path d="M34035 19598 c-2 -7 -15 -48 -30 -91 -31 -97 -82 -199 -130 -262
l-37 -48 27 -26 26 -26 22 26 c12 14 32 39 45 55 l23 29 -5 -222 -5 -223 39 0
40 0 0 298 0 297 35 85 c19 47 35 86 35 87 0 3 -70 33 -77 33 -2 0 -6 -6 -8
-12z"/>
<path d="M34240 19581 c0 -10 5 -76 10 -146 6 -70 9 -129 7 -131 -2 -2 -30 -9
-63 -14 -111 -20 -107 -17 -100 -52 3 -17 8 -33 10 -35 2 -2 32 3 67 12 89 21
98 20 105 -12 15 -65 45 -157 69 -207 52 -111 179 -206 235 -176 23 12 43 48
58 103 10 37 10 38 -25 52 -41 17 -53 13 -53 -19 0 -12 -6 -30 -14 -41 -12
-17 -16 -16 -60 25 -53 49 -96 131 -125 237 -18 67 -18 72 -3 77 9 3 69 15
132 27 63 12 116 23 118 24 5 4 -21 65 -28 65 -5 0 -55 -11 -112 -25 -57 -14
-110 -25 -119 -25 -14 0 -17 21 -23 132 -4 73 -8 133 -9 134 -1 1 -19 4 -39 7
-32 5 -38 3 -38 -12z"/>
<path d="M34919 19593 c-1 -5 0 -23 1 -40 l2 -33 -71 0 -71 0 0 -35 0 -34 66
6 66 6 -4 -29 c-3 -29 -3 -29 -80 -32 l-78 -3 0 -29 0 -30 65 0 c38 0 65 -4
65 -10 0 -13 -108 -124 -135 -138 -20 -10 -19 -11 4 -36 14 -14 29 -26 34 -26
6 0 43 34 84 76 l74 76 44 -36 44 -36 26 24 25 24 -51 38 -50 39 65 3 c66 3
66 3 66 32 l0 30 -71 0 -70 0 3 28 c3 26 4 27 61 24 l57 -2 0 35 0 35 -55 0
c-58 0 -61 3 -46 43 9 22 7 25 -21 31 -40 8 -48 8 -49 -1z"/>
<path d="M35250 19560 l0 -40 -55 0 -55 0 0 -35 0 -34 51 6 51 6 -4 -29 c-3
-28 -5 -29 -60 -32 -57 -3 -58 -4 -58 -32 0 -28 2 -29 52 -32 l52 -3 -34 -38
c-18 -21 -47 -45 -64 -54 l-31 -16 23 -15 c12 -8 22 -18 22 -23 0 -5 -56 -9
-125 -9 l-125 0 0 -185 0 -185 34 0 c28 0 35 4 38 23 3 22 5 22 171 25 164 2
169 2 174 -18 4 -17 12 -20 36 -18 l31 3 0 175 0 175 -101 3 -102 3 41 37 c23
20 49 50 58 65 l17 28 29 -38 c33 -45 45 -55 103 -90 l44 -27 23 30 c13 16 24
32 24 35 0 3 -18 11 -39 18 -22 6 -61 31 -88 56 l-48 44 83 1 82 0 0 30 0 30
-95 0 -95 0 0 31 0 32 75 -6 75 -5 0 34 0 34 -71 0 -71 0 6 34 c6 31 4 34 -25
40 -48 9 -49 9 -49 -34z m58 -477 l3 -33 -175 0 -176 0 0 35 0 35 173 -2 172
-3 3 -32z m0 -130 l3 -33 -175 0 -176 0 0 35 0 35 173 -2 172 -3 3 -32z"/>
<path d="M34420 19542 l-23 -18 42 -62 42 -62 30 22 c16 12 29 26 29 31 0 16
-73 107 -86 107 -6 0 -22 -8 -34 -18z"/>
<path d="M36830 19476 c-99 -45 -130 -72 -68 -61 65 12 68 2 68 -233 0 -230
-5 -251 -57 -264 -71 -19 -30 -28 122 -28 97 0 155 4 155 10 0 6 -8 10 -18 10
-10 0 -28 7 -40 16 -22 15 -22 17 -22 305 l0 289 -22 -1 c-13 0 -66 -20 -118
-43z"/>
<path d="M37270 19476 c-99 -45 -130 -72 -68 -61 65 12 68 2 68 -233 0 -230
-5 -251 -57 -264 -71 -19 -30 -28 122 -28 97 0 155 4 155 10 0 6 -8 10 -18 10
-10 0 -28 7 -40 16 -22 15 -22 17 -22 305 l0 289 -22 -1 c-13 0 -66 -20 -118
-43z"/>
<path d="M37690 19213 c-78 -170 -145 -314 -147 -320 -4 -10 13 -13 64 -13
l69 0 142 308 c78 169 142 313 142 320 0 8 -19 12 -64 12 l-63 0 -143 -307z"/>
<path d="M39015 19506 c-67 -19 -118 -73 -135 -145 -35 -148 68 -272 202 -242
23 6 44 8 46 7 7 -8 -11 -54 -36 -91 -32 -47 -108 -100 -163 -115 -47 -13 -54
-40 -10 -40 47 0 155 38 202 71 138 97 198 257 154 407 -36 121 -140 180 -260
148z m97 -43 c25 -28 38 -91 38 -180 0 -59 -4 -86 -15 -97 -43 -43 -97 -22
-116 46 -16 61 -8 187 14 221 20 31 56 36 79 10z"/>
<path d="M39460 19476 c-99 -45 -130 -72 -68 -61 65 12 68 2 68 -233 0 -230
-5 -251 -57 -264 -71 -19 -30 -28 122 -28 97 0 155 4 155 10 0 6 -8 10 -18 10
-10 0 -28 7 -40 16 -22 15 -22 17 -22 305 l0 289 -22 -1 c-13 0 -66 -20 -118
-43z"/>
<path d="M39887 19506 c-128 -35 -165 -165 -74 -263 l40 -43 -40 -38 c-122
-112 -50 -281 120 -282 115 0 199 76 199 179 -1 63 -14 93 -64 147 -24 26 -38
48 -32 52 61 41 84 75 84 122 0 97 -114 159 -233 126z m110 -48 c32 -36 36
-73 14 -122 -10 -24 -24 -47 -30 -51 -7 -4 -30 12 -56 38 -37 36 -45 51 -45
81 0 68 73 102 117 54z m-46 -335 c71 -64 88 -126 48 -177 -18 -23 -28 -27
-62 -24 -34 2 -45 9 -64 37 -15 23 -23 49 -23 78 0 44 32 123 50 123 6 0 28
-17 51 -37z"/>
<path d="M41235 19515 c-5 -2 -22 -6 -37 -9 -55 -12 -128 -98 -128 -151 0 -22
28 -18 35 5 9 27 58 60 90 60 41 0 81 -26 96 -62 38 -92 -9 -194 -181 -394
-27 -33 -50 -62 -50 -66 0 -5 85 -8 190 -8 l189 0 24 78 c13 42 20 79 15 80
-4 2 -22 -8 -39 -22 -28 -24 -38 -26 -126 -26 l-96 0 19 22 c10 13 47 54 81
91 78 85 123 173 123 236 0 59 -34 119 -80 142 -35 17 -106 31 -125 24z"/>
<path d="M41653 19510 c-101 -24 -162 -140 -163 -307 0 -200 78 -323 206 -323
119 0 194 106 202 285 11 239 -91 382 -245 345z m84 -62 c15 -28 18 -64 21
-233 4 -216 -4 -265 -45 -292 -19 -13 -24 -12 -41 5 -32 32 -44 136 -41 327 3
143 7 175 22 198 25 39 61 36 84 -5z"/>
<path d="M42080 19476 c-99 -45 -130 -72 -68 -61 65 12 68 2 68 -233 0 -230
-5 -251 -57 -264 -71 -19 -30 -28 122 -28 97 0 155 4 155 10 0 6 -8 10 -18 10
-10 0 -28 7 -40 16 -22 15 -22 17 -22 305 l0 289 -22 -1 c-13 0 -66 -20 -118
-43z"/>
<path d="M42545 19515 c-5 -2 -22 -6 -37 -9 -55 -12 -128 -98 -128 -151 0 -22
28 -18 35 5 9 27 58 60 90 60 41 0 81 -26 96 -62 38 -92 -9 -194 -181 -394
-27 -33 -50 -62 -50 -66 0 -5 85 -8 190 -8 l189 0 24 78 c13 42 20 79 15 80
-4 2 -22 -8 -39 -22 -28 -24 -38 -26 -126 -26 l-96 0 19 22 c10 13 47 54 81
91 78 85 123 173 123 236 0 59 -34 119 -80 142 -35 17 -106 31 -125 24z"/>
<path d="M35800 19492 c0 -4 10 -12 23 -17 l22 -10 0 -265 0 -265 -22 -10
c-13 -5 -23 -15 -23 -22 0 -16 217 -18 273 -2 93 26 156 126 164 264 10 153
-36 267 -127 313 -39 19 -59 22 -177 22 -73 0 -133 -3 -133 -8z m250 -58 c41
-35 57 -67 70 -147 9 -50 9 -88 1 -149 -14 -107 -44 -167 -95 -192 -64 -31
-66 -22 -66 250 0 128 3 239 6 248 9 24 49 19 84 -10z"/>
<path d="M36230 19491 c0 -6 6 -11 14 -11 8 0 22 -7 30 -16 14 -13 16 -51 16
-260 0 -253 -4 -284 -40 -284 -11 0 -20 -7 -20 -15 0 -13 23 -15 148 -15 210
1 254 25 269 149 7 61 -23 134 -65 158 l-30 17 24 19 c41 32 57 74 51 134 -6
56 -21 85 -59 111 -18 14 -54 18 -180 20 -109 3 -158 0 -158 -7z m241 -44 c26
-20 39 -53 39 -102 0 -59 -13 -83 -55 -101 -19 -8 -37 -14 -40 -14 -7 0 -6
215 2 223 10 11 36 8 54 -6z m21 -284 c46 -42 48 -164 3 -209 -27 -27 -70 -32
-79 -8 -3 9 -6 68 -6 131 l0 116 32 -7 c17 -3 40 -14 50 -23z"/>
<path d="M37986 19429 c-5 -46 -4 -75 3 -82 11 -11 14 -5 25 43 9 45 30 62 79
67 l47 6 0 -244 c0 -134 -3 -254 -6 -266 -3 -12 -19 -26 -35 -32 -62 -21 -30
-31 102 -31 100 0 130 3 127 13 -3 6 -13 14 -24 15 -41 8 -44 24 -44 289 l0
253 30 0 c61 0 100 -39 100 -101 0 -11 5 -19 10 -19 6 0 10 33 10 80 l0 80
-209 0 -208 0 -7 -71z"/>
<path d="M40160 19210 l0 -30 440 0 440 0 0 30 0 30 -440 0 -440 0 0 -30z"/>
<path d="M4180 17120 l0 -30 20080 0 20080 0 0 30 0 30 -20080 0 -20080 0 0
-30z"/>
<path d="M17571 7729 c-30 -5 -56 -11 -58 -13 -2 -1 6 -29 17 -61 33 -97 69
-89 -350 -82 l-371 5 3 -74 3 -75 845 0 845 1 3 74 3 74 -373 -6 -373 -5 -29
87 -29 86 -41 -1 c-23 -1 -65 -5 -95 -10z"/>
<path d="M22076 7729 c-104 -306 -252 -581 -402 -748 -26 -29 -45 -53 -43 -54
55 -36 120 -81 140 -96 l26 -20 94 143 c52 79 106 164 121 190 26 43 30 46 68
46 l41 0 -3 -740 -3 -741 88 3 88 3 -1 238 -1 237 321 0 320 0 0 80 0 80 -320
-7 -320 -6 0 192 0 193 290 -3 290 -4 0 80 0 80 -290 -3 -290 -4 0 161 0 161
340 0 340 0 0 75 0 75 -425 2 -424 3 54 110 c29 61 70 129 90 153 21 24 36 45
34 46 -2 2 -47 21 -99 41 -52 20 -101 39 -107 42 -7 3 -15 -1 -17 -8z"/>
<path d="M27912 7544 l3 -199 -137 4 -138 3 0 -78 0 -79 140 3 140 3 -2 -178
-3 -178 -183 4 -183 4 3 -78 3 -77 177 1 178 2 -6 -48 c-30 -243 -180 -545
-346 -697 -39 -36 -70 -67 -67 -70 2 -2 19 -11 38 -21 19 -9 55 -37 82 -62
l47 -44 60 83 c90 126 158 238 231 385 l67 133 45 -37 c73 -61 158 -145 201
-201 23 -29 44 -51 49 -50 4 2 36 36 70 77 l62 74 -29 24 c-16 14 -102 83
-191 155 -123 98 -163 136 -163 153 0 12 3 50 6 84 l7 61 153 0 154 0 0 77 0
76 -150 -6 -150 -6 0 179 0 180 130 0 130 0 0 76 0 77 -131 -5 -131 -5 4 151
c3 109 9 161 20 187 l16 37 -36 5 c-21 4 -68 9 -105 13 l-68 7 3 -199z"/>
<path d="M21452 7627 c-78 -246 -235 -548 -400 -766 -41 -54 -61 -89 -56 -97
46 -60 108 -134 113 -134 8 1 63 76 149 203 l73 109 -3 -601 -3 -601 98 0 97
0 0 764 0 764 34 79 c49 116 81 174 122 228 27 36 33 50 23 54 -7 2 -57 26
-110 53 -53 26 -99 48 -101 48 -2 0 -19 -46 -36 -103z"/>
<path d="M23508 7473 l5 -226 -152 6 -151 7 0 -79 0 -79 150 6 150 5 -2 -207
-3 -207 -88 -39 c-74 -33 -129 -55 -244 -95 -8 -3 -1 -21 22 -54 18 -28 36
-64 40 -81 4 -16 10 -30 15 -30 4 0 40 18 79 40 39 22 95 51 126 64 l55 25 0
-251 c0 -213 -2 -255 -17 -285 -21 -46 -63 -63 -154 -63 -63 0 -71 -2 -66 -17
35 -111 62 -173 76 -173 33 0 183 41 219 59 45 23 77 56 91 94 7 18 11 153 11
373 l0 345 117 55 c65 31 120 57 122 59 2 2 -2 40 -9 84 l-12 81 -42 -26 c-22
-14 -71 -41 -108 -60 l-68 -34 0 171 0 171 113 -3 112 -4 3 78 3 78 -116 -7
-116 -7 3 227 3 226 -86 0 -86 0 5 -227z"/>
<path d="M19352 7518 l3 -163 -118 -3 -118 -3 41 82 c23 44 40 82 38 83 -2 2
-108 33 -180 53 -13 4 -20 -7 -33 -53 -29 -107 -87 -252 -125 -319 l-39 -65
47 -25 c26 -13 61 -34 79 -45 l32 -22 20 33 c11 19 31 57 43 86 l23 53 148 0
147 0 0 -121 0 -122 -270 5 -271 4 3 -75 3 -75 268 3 267 3 0 -111 0 -111
-219 0 -219 0 1 -340 0 -340 88 0 89 0 0 270 0 271 128 -3 127 -3 -1 -357 -1
-358 96 0 96 0 0 357 0 358 130 0 130 0 -1 -140 c0 -176 -2 -181 -90 -190 -54
-6 -65 -10 -61 -24 21 -74 51 -177 53 -179 4 -7 170 41 206 59 59 30 65 55 72
284 4 110 9 230 12 268 l6 67 -231 0 -231 0 0 110 0 110 240 0 240 0 0 74 0
74 -240 -6 -240 -5 0 122 0 123 215 -4 215 -3 0 78 0 78 -217 -7 -216 -7 6
166 6 167 -100 0 -100 0 3 -162z"/>
<path d="M24411 7523 l4 -158 -222 1 -223 1 0 -76 0 -76 225 3 225 4 0 -166 0
-167 -207 1 -208 2 -3 -71 -3 -71 54 0 54 0 42 -127 c46 -143 124 -311 194
-420 l46 -72 -62 -35 c-161 -90 -341 -162 -469 -188 -35 -6 -64 -13 -66 -14
-5 -3 119 -158 128 -162 12 -5 250 93 355 146 50 24 123 67 164 94 l73 49 37
-26 c90 -67 207 -139 297 -184 124 -61 226 -99 231 -84 2 5 26 43 52 84 l49
73 -81 24 c-116 33 -257 93 -345 147 -127 76 -121 67 -80 117 63 77 149 217
203 331 54 115 135 334 135 368 0 18 -11 19 -215 19 l-215 0 0 166 0 166 255
-3 255 -4 0 76 0 75 -255 -4 -256 -5 7 162 7 161 -93 0 -93 0 4 -157z m379
-777 c0 -16 -58 -163 -88 -221 -47 -94 -124 -214 -160 -248 l-29 -28 -32 38
c-43 51 -131 234 -175 361 l-35 102 259 0 c143 0 260 -2 260 -4z"/>
<path d="M26238 7428 l5 -251 -422 6 -421 5 0 -85 0 -85 336 7 337 8 -7 -29
c-12 -46 -73 -181 -118 -258 -146 -253 -344 -464 -550 -588 -38 -22 -68 -44
-68 -49 0 -4 10 -14 23 -20 12 -7 48 -37 79 -67 41 -39 61 -51 71 -45 8 4 60
45 116 91 141 118 295 282 380 406 62 91 98 158 219 406 l22 45 -3 -583 -2
-582 95 0 95 0 -2 602 c-2 382 1 596 7 583 5 -11 27 -66 50 -123 52 -132 80
-187 148 -292 92 -143 211 -276 337 -377 54 -43 167 -120 187 -128 11 -4 178
147 178 161 0 2 -7 4 -15 4 -8 0 -49 18 -92 41 -221 116 -409 310 -547 564
-32 59 -96 213 -96 232 0 3 155 2 345 -2 l345 -7 0 85 0 85 -422 -2 -423 -1 2
248 2 247 -98 0 -98 0 5 -252z"/>
<path d="M30218 7559 l4 -120 -256 3 -256 3 0 -77 0 -76 256 5 256 6 -4 -116
-3 -117 93 0 92 0 0 115 0 115 265 0 265 0 0 -110 0 -110 95 0 95 0 -7 112 -6
111 266 -6 267 -6 0 77 0 77 -266 -3 -267 -3 6 121 5 120 -98 0 -97 0 5 -120
5 -120 -268 0 -267 0 4 120 4 120 -95 0 -96 0 3 -121z"/>
<path d="M15242 7644 c-29 -13 -92 -35 -140 -49 -100 -28 -347 -75 -397 -75
-71 0 -65 57 -65 -657 l0 -645 -26 -47 -25 -48 56 -82 c35 -50 62 -80 70 -77
7 2 91 48 187 101 95 52 244 130 330 173 122 59 156 80 151 92 -3 8 -18 49
-32 91 l-26 76 -95 -57 c-52 -31 -166 -94 -252 -139 l-158 -83 0 313 0 312
280 -6 280 -6 0 78 0 77 -280 -4 -280 -5 0 207 c0 113 2 206 5 206 43 0 612
94 621 102 1 2 -17 27 -41 56 -24 28 -53 68 -65 87 -12 19 -27 35 -33 34 -7 0
-36 -11 -65 -25z"/>
<path d="M20560 7663 c0 -5 -1 -383 -3 -841 l-2 -834 -24 -19 c-19 -16 -40
-19 -117 -19 -52 0 -94 -3 -94 -6 0 -3 14 -49 32 -101 l32 -95 56 6 c85 10
212 44 240 65 57 41 55 -1 58 964 l3 887 -91 0 c-49 0 -90 -3 -90 -7z"/>
<path d="M26772 7626 c-34 -24 -65 -46 -68 -49 -3 -3 19 -36 49 -74 30 -37 82
-111 117 -163 34 -52 66 -99 70 -103 4 -5 32 11 62 35 29 24 64 51 77 60 15
11 20 21 15 30 -24 40 -131 173 -190 235 l-69 72 -63 -43z"/>
<path d="M28440 7598 c0 -2 -1 -256 -3 -566 l-2 -562 78 0 77 0 0 490 0 490
300 0 300 0 0 -490 0 -491 80 3 81 3 -1 560 0 560 -455 3 c-250 1 -455 1 -455
0z"/>
<path d="M15600 7545 c0 -3 0 -407 0 -897 l-1 -893 81 -3 80 -3 0 826 0 825
210 0 210 0 0 -519 0 -520 -23 -27 c-21 -24 -33 -27 -122 -36 -55 -5 -101 -11
-103 -12 -1 -2 9 -23 22 -47 13 -24 30 -64 37 -89 7 -25 13 -46 14 -48 1 -1
49 7 105 18 134 25 189 52 215 105 19 39 20 63 23 683 l3 642 -375 0 c-207 0
-376 -2 -376 -5z"/>
<path d="M20155 6805 l0 -606 88 3 88 3 2 602 2 603 -90 0 -90 0 0 -605z"/>
<path d="M17195 7376 c-40 -13 -69 -28 -67 -35 2 -9 41 -72 99 -160 3 -5 166
40 176 49 4 4 -16 44 -45 89 -59 92 -57 91 -163 57z"/>
<path d="M17963 7322 c-12 -42 -29 -94 -37 -114 l-16 -38 -620 0 -620 0 0 -72
0 -73 995 0 995 0 0 73 0 72 -275 0 c-151 0 -275 2 -275 5 0 12 34 71 72 127
38 57 38 58 16 63 -47 11 -184 35 -198 35 -10 0 -22 -25 -37 -78z"/>
<path d="M28816 7198 c-3 -18 -7 -121 -11 -228 -8 -307 -29 -427 -100 -575
-91 -190 -278 -359 -535 -482 l-94 -46 34 -26 c19 -14 54 -46 77 -70 l41 -45
99 60 c307 185 469 359 553 597 l19 52 0 -260 c1 -272 7 -323 44 -363 47 -51
71 -57 237 -57 170 0 194 7 243 64 25 30 85 180 94 236 4 28 1 31 -41 49 -26
10 -63 29 -82 43 -20 13 -38 22 -40 20 -2 -2 -11 -41 -20 -87 -19 -103 -36
-145 -62 -159 -29 -16 -116 -14 -157 3 -52 22 -57 53 -53 339 l3 247 -67 0
c-78 0 -76 -4 -58 120 5 36 16 144 25 240 15 161 29 271 41 311 4 13 -11 19
-78 33 -108 21 -106 21 -112 -16z"/>
<path d="M29961 7052 l-64 -58 79 -56 c43 -31 115 -88 158 -127 44 -39 82 -70
86 -69 4 2 36 29 71 61 l64 59 -50 44 c-70 62 -257 204 -270 204 -5 0 -39 -26
-74 -58z"/>
<path d="M30568 6993 c-2 -5 -1 -244 2 -533 5 -507 6 -526 26 -565 13 -26 37
-49 65 -65 l44 -25 380 0 c369 0 381 1 427 22 52 24 76 55 109 143 31 81 35
110 16 110 -9 0 -50 18 -91 39 l-75 39 -7 -37 c-3 -20 -12 -59 -20 -87 -23
-85 -20 -84 -338 -84 -177 0 -284 4 -299 11 -56 26 -57 30 -57 483 l0 416 241
0 241 0 -6 -132 c-10 -202 -15 -236 -39 -264 -25 -28 -99 -44 -206 -44 l-63 0
16 -22 c9 -13 31 -54 49 -91 l32 -69 50 7 c182 23 282 74 305 156 15 52 52
584 41 595 -8 7 -840 4 -843 -3z"/>
<path d="M16980 6570 l0 -330 303 -2 302 -3 3 -63 3 -62 -458 0 -458 1 -3 -75
-3 -75 458 2 457 2 -3 -128 -3 -128 103 3 103 3 -3 129 -3 129 446 -7 447 -6
-3 75 -3 76 -442 -1 -443 0 0 65 0 65 315 0 315 0 0 330 0 330 -715 0 -715 0
0 -330z m1240 125 l0 -65 -525 0 -525 0 0 65 0 65 525 0 525 0 0 -65z m0 -255
l0 -60 -525 0 -525 0 0 60 0 60 525 0 525 0 0 -60z"/>
<path d="M29775 6654 c-31 -36 -54 -69 -49 -73 5 -4 52 -34 104 -66 52 -32
127 -82 167 -112 l72 -54 65 68 c65 68 65 68 45 85 -22 19 -223 147 -300 191
l-46 27 -58 -66z"/>
<path d="M30173 6284 c-88 -111 -231 -265 -326 -352 -39 -37 -72 -70 -72 -73
0 -4 30 -35 67 -68 l67 -61 220 252 c122 139 221 258 221 263 -1 6 -24 36 -53
69 l-53 58 -71 -88z"/>
<path d="M20845 3329 c-153 -17 -233 -87 -251 -218 l-7 -51 -59 0 c-59 0 -59
0 -56 -27 3 -27 6 -28 61 -31 l57 -3 0 -204 c0 -112 -3 -211 -6 -220 -8 -20
-56 -45 -89 -45 -16 0 -25 -6 -25 -15 0 -13 36 -15 260 -15 224 0 260 2 260
15 0 10 -10 15 -29 15 -41 0 -90 19 -101 40 -6 11 -10 109 -10 224 l0 206 80
0 80 0 0 30 0 30 -80 0 -80 0 0 99 c0 109 8 125 57 119 21 -2 32 -12 45 -39
23 -50 41 -61 98 -61 82 0 129 47 96 97 -30 45 -165 69 -301 54z"/>
<path d="M26105 3329 c-153 -17 -233 -87 -251 -218 l-7 -51 -59 0 c-59 0 -59
0 -56 -27 3 -27 6 -28 61 -31 l57 -3 0 -204 c0 -112 -3 -211 -6 -220 -8 -20
-56 -45 -89 -45 -16 0 -25 -6 -25 -15 0 -13 36 -15 260 -15 224 0 260 2 260
15 0 10 -10 15 -29 15 -41 0 -90 19 -101 40 -6 11 -10 109 -10 224 l0 206 80
0 80 0 0 30 0 30 -80 0 -80 0 0 99 c0 109 8 125 57 119 21 -2 32 -12 45 -39
23 -50 41 -61 98 -61 82 0 129 47 96 97 -30 45 -165 69 -301 54z"/>
<path d="M14823 3315 c-104 -45 -45 -165 80 -165 48 0 106 20 126 44 7 8 11
32 9 52 -2 31 -10 43 -37 61 -40 27 -126 31 -178 8z"/>
<path d="M20073 3315 c-104 -45 -45 -165 80 -165 48 0 106 20 126 44 7 8 11
32 9 52 -2 31 -10 43 -37 61 -40 27 -126 31 -178 8z"/>
<path d="M21243 3315 c-104 -45 -45 -165 80 -165 48 0 106 20 126 44 7 8 11
32 9 52 -2 31 -10 43 -37 61 -40 27 -126 31 -178 8z"/>
<path d="M23573 3315 c-104 -45 -45 -165 80 -165 48 0 106 20 126 44 7 8 11
32 9 52 -2 31 -10 43 -37 61 -40 27 -126 31 -178 8z"/>
<path d="M32913 3315 c-104 -45 -45 -165 80 -165 48 0 106 20 126 44 7 8 11
32 9 52 -2 31 -10 43 -37 61 -40 27 -126 31 -178 8z"/>
<path d="M11727 3313 c-4 -3 -7 -53 -7 -110 0 -81 3 -103 14 -103 8 0 16 16
20 41 14 86 52 119 139 119 l27 0 0 -345 c0 -332 -1 -346 -20 -365 -11 -11
-29 -20 -40 -20 -11 0 -20 -7 -20 -15 0 -13 25 -15 165 -15 140 0 165 2 165
15 0 8 -8 15 -18 15 -10 0 -28 9 -40 20 -22 21 -22 24 -22 365 l0 345 28 0
c86 0 124 -33 138 -119 4 -25 12 -41 21 -41 11 0 13 20 11 108 l-3 107 -276 3
c-151 1 -278 -1 -282 -5z"/>
<path d="M13528 3311 c-31 -3 -60 -10 -64 -14 -5 -4 4 -18 19 -30 15 -12 32
-38 37 -57 13 -45 13 -611 0 -644 -5 -14 -20 -28 -35 -32 -14 -3 -25 -12 -25
-20 0 -11 27 -14 140 -14 148 0 162 5 115 42 l-25 20 2 185 c3 185 3 186 28
204 42 29 67 32 89 10 20 -20 21 -33 21 -210 0 -159 -3 -192 -16 -205 -8 -9
-20 -16 -25 -16 -5 0 -9 -7 -9 -15 0 -13 39 -15 280 -15 226 0 280 3 280 14 0
7 -11 18 -25 24 l-25 12 0 194 0 195 26 20 c34 27 66 27 90 0 16 -18 19 -41
22 -177 5 -173 -5 -237 -38 -247 -11 -4 -20 -13 -20 -21 0 -11 25 -14 140 -14
107 0 140 3 140 13 0 7 -13 17 -28 23 -38 15 -42 37 -42 251 0 196 -8 230 -64
264 -34 21 -99 25 -143 8 -15 -5 -43 -24 -60 -42 l-33 -31 0 37 0 37 -52 -1
c-103 -2 -163 -13 -166 -31 -2 -9 5 -19 16 -22 36 -12 42 -49 42 -250 0 -171
-2 -195 -17 -208 -28 -24 -46 -26 -75 -11 -16 7 -29 15 -30 16 0 1 -4 97 -7
212 -5 184 -8 214 -26 242 -48 80 -172 84 -247 8 l-28 -28 0 167 0 166 -52 -1
c-29 -1 -79 -5 -110 -8z"/>
<path d="M16555 3313 c-44 -2 -90 -5 -102 -8 -31 -7 -30 -35 0 -35 27 0 61
-33 76 -73 16 -42 14 -595 -2 -627 -9 -18 -25 -28 -55 -34 -23 -6 -42 -16 -42
-23 0 -10 48 -13 235 -13 187 0 235 3 235 13 0 7 -19 17 -42 23 -30 6 -46 16
-55 34 -10 19 -13 118 -13 388 l0 362 -77 -2 c-43 -1 -114 -3 -158 -5z"/>
<path d="M29975 3313 c-44 -2 -90 -5 -102 -8 -31 -7 -30 -35 0 -35 27 0 61
-33 76 -73 16 -42 14 -595 -2 -627 -9 -18 -25 -28 -55 -34 -23 -6 -42 -16 -42
-23 0 -10 48 -13 235 -13 187 0 235 3 235 13 0 7 -19 17 -42 23 -30 6 -46 16
-55 34 -10 19 -13 118 -13 388 l0 362 -77 -2 c-43 -1 -114 -3 -158 -5z"/>
<path d="M32210 3313 c-30 -2 -59 -8 -63 -12 -5 -5 8 -18 27 -29 l36 -21 0
-346 0 -346 -35 -20 c-19 -12 -32 -25 -29 -30 7 -13 291 -12 299 1 3 6 -2 13
-12 17 -47 16 -53 31 -53 137 l0 101 65 -100 c67 -102 76 -129 50 -139 -8 -3
-15 -10 -15 -16 0 -7 126 -10 380 -10 315 0 380 2 380 14 0 8 -15 16 -36 19
-74 12 -74 11 -74 285 l0 244 -117 -7 c-184 -11 -246 -19 -250 -31 -2 -7 12
-15 31 -18 23 -4 43 -17 56 -35 18 -27 20 -44 20 -213 0 -100 -4 -188 -8 -194
-12 -19 -49 -34 -81 -34 -46 0 -87 43 -192 201 l-94 142 68 62 c38 35 86 71
108 80 21 10 39 24 39 32 0 10 -25 13 -115 13 -96 0 -115 -3 -115 -15 0 -8 4
-15 9 -15 5 0 17 -7 25 -16 22 -21 4 -53 -73 -129 l-61 -59 0 247 0 247 -57
-2 c-32 -1 -83 -3 -113 -5z"/>
<path d="M23062 3185 c-59 -62 -102 -91 -184 -125 -71 -29 -75 -48 -10 -52
l47 -3 5 -210 c4 -179 8 -215 23 -238 26 -40 73 -60 157 -65 86 -5 180 21 238
65 30 22 32 26 16 37 -13 10 -23 9 -52 -6 -46 -23 -94 -23 -115 0 -15 16 -17
47 -17 220 l0 202 85 0 c84 0 85 0 85 25 0 25 -1 25 -85 25 l-84 0 -3 88 c-3
85 -4 87 -28 90 -20 2 -37 -10 -78 -53z"/>
<path d="M17759 3079 c-106 -12 -179 -77 -179 -161 0 -68 40 -106 217 -207
107 -61 139 -112 91 -145 -26 -18 -94 -21 -135 -5 -40 15 -101 77 -114 116 -7
22 -17 33 -30 33 -18 0 -19 -8 -19 -105 0 -97 1 -105 19 -105 11 0 23 5 26 10
9 15 76 12 125 -5 63 -22 185 -19 240 6 80 36 120 88 120 156 0 81 -50 129
-240 233 -111 60 -131 108 -56 133 57 19 156 -35 192 -104 8 -17 23 -29 34
-29 18 0 20 7 20 90 0 80 -2 90 -18 90 -10 0 -23 -5 -30 -12 -8 -8 -30 -8 -89
1 -110 17 -112 17 -174 10z"/>
<path d="M28259 3079 c-106 -12 -179 -77 -179 -161 0 -68 40 -106 217 -207
107 -61 139 -112 91 -145 -26 -18 -94 -21 -135 -5 -40 15 -101 77 -114 116 -7
22 -17 33 -30 33 -18 0 -19 -8 -19 -105 0 -97 1 -105 19 -105 11 0 23 5 26 10
9 15 76 12 125 -5 63 -22 185 -19 240 6 80 36 120 88 120 156 0 81 -50 129
-240 233 -111 60 -131 108 -56 133 57 19 156 -35 192 -104 8 -17 23 -29 34
-29 18 0 20 7 20 90 0 80 -2 90 -18 90 -10 0 -23 -5 -30 -12 -8 -8 -30 -8 -89
1 -110 17 -112 17 -174 10z"/>
<path d="M12505 3046 c-54 -25 -93 -64 -128 -130 -18 -34 -22 -57 -22 -141 0
-89 3 -105 27 -151 30 -57 72 -97 127 -120 45 -20 162 -14 208 9 42 22 100 83
124 130 17 33 18 38 4 43 -10 4 -29 -7 -53 -33 -45 -48 -90 -67 -136 -59 -67
13 -117 77 -135 171 l-8 45 169 0 c156 0 169 1 164 18 -2 9 -7 36 -11 59 -23
146 -188 226 -330 159z m132 -34 c19 -12 43 -78 43 -117 l0 -35 -84 0 c-75 0
-84 2 -81 18 2 9 7 33 10 53 11 69 67 110 112 81z"/>
<path d="M13115 3058 c-76 -27 -154 -110 -175 -187 -13 -47 -13 -146 0 -193
31 -111 131 -188 244 -188 105 0 186 51 236 150 18 35 18 39 3 44 -11 5 -25
-4 -44 -28 -83 -100 -219 -69 -263 61 -24 71 -21 188 7 243 28 58 67 79 103
56 20 -14 24 -25 24 -66 0 -67 31 -104 86 -103 49 1 74 30 74 85 0 33 -7 47
-38 78 -21 21 -55 43 -77 49 -49 13 -140 13 -180 -1z"/>
<path d="M15445 3058 c-76 -27 -154 -110 -175 -187 -13 -47 -13 -146 0 -193
31 -111 131 -188 244 -188 105 0 186 51 236 150 18 35 18 39 3 44 -11 5 -25
-4 -44 -28 -83 -100 -219 -69 -263 61 -24 71 -21 188 7 243 28 58 67 79 103
56 20 -14 24 -25 24 -66 0 -67 31 -104 86 -103 49 1 74 30 74 85 0 33 -7 47
-38 78 -21 21 -55 43 -77 49 -49 13 -140 13 -180 -1z"/>
<path d="M15968 3056 c-108 -42 -148 -120 -94 -182 23 -28 24 -28 67 -14 68
21 72 27 64 86 -6 47 -4 54 17 68 30 22 60 20 86 -4 18 -18 22 -32 22 -89 l0
-68 -47 -18 c-194 -72 -276 -159 -243 -259 18 -55 62 -86 120 -86 53 0 83 10
144 50 31 20 40 22 44 11 11 -33 55 -61 94 -61 68 0 148 50 134 85 -5 13 -10
14 -27 5 -39 -21 -44 -1 -49 200 -6 210 -10 223 -81 265 -43 25 -196 32 -251
11z m162 -345 c0 -95 -4 -104 -53 -116 -57 -15 -92 55 -61 120 14 30 82 85
107 85 4 0 7 -40 7 -89z"/>
<path d="M18425 3055 c-16 -9 -38 -24 -47 -32 -17 -15 -18 -14 -18 10 0 36
-28 36 -137 0 -63 -21 -83 -31 -83 -45 0 -10 5 -18 10 -18 6 0 19 -15 30 -32
19 -31 20 -51 20 -306 0 -158 -4 -281 -10 -292 -5 -10 -21 -21 -35 -24 -14 -4
-25 -13 -25 -21 0 -13 25 -15 160 -15 132 0 160 3 160 14 0 8 -15 20 -34 26
-19 6 -37 19 -41 28 -9 23 -19 182 -12 182 4 0 21 -9 39 -20 69 -42 173 -18
228 52 49 64 65 117 65 228 0 95 -3 110 -28 163 -38 77 -82 110 -155 114 -39
3 -66 -1 -87 -12z m83 -119 c26 -47 25 -266 -2 -319 -31 -62 -81 -72 -126 -27
-18 18 -20 34 -20 183 0 157 1 164 23 184 12 11 29 23 37 25 27 9 70 -14 88
-46z"/>
<path d="M18915 3046 c-54 -25 -93 -64 -128 -130 -18 -34 -22 -57 -22 -141 0
-89 3 -105 27 -151 30 -57 72 -97 127 -120 45 -20 162 -14 208 9 42 22 100 83
124 130 17 33 18 38 4 43 -10 4 -29 -7 -53 -33 -45 -48 -90 -67 -136 -59 -67
13 -117 77 -135 171 l-8 45 169 0 c156 0 169 1 164 18 -2 9 -7 36 -11 59 -23
146 -188 226 -330 159z m132 -34 c19 -12 43 -78 43 -117 l0 -35 -84 0 c-75 0
-84 2 -81 18 2 9 7 33 10 53 11 69 67 110 112 81z"/>
<path d="M19535 3058 c-76 -27 -154 -110 -175 -187 -13 -47 -13 -146 0 -193
31 -111 131 -188 244 -188 105 0 186 51 236 150 18 35 18 39 3 44 -11 5 -25
-4 -44 -28 -83 -100 -219 -69 -263 61 -24 71 -21 188 7 243 28 58 67 79 103
56 20 -14 24 -25 24 -66 0 -67 31 -104 86 -103 49 1 74 30 74 85 0 33 -7 47
-38 78 -21 21 -55 43 -77 49 -49 13 -140 13 -180 -1z"/>
<path d="M21865 3058 c-76 -27 -154 -110 -175 -187 -13 -47 -13 -146 0 -193
31 -111 131 -188 244 -188 105 0 186 51 236 150 18 35 18 39 3 44 -11 5 -25
-4 -44 -28 -83 -100 -219 -69 -263 61 -24 71 -21 188 7 243 28 58 67 79 103
56 20 -14 24 -25 24 -66 0 -67 31 -104 86 -103 49 1 74 30 74 85 0 33 -7 47
-38 78 -21 21 -55 43 -77 49 -49 13 -140 13 -180 -1z"/>
<path d="M22388 3056 c-108 -42 -148 -120 -94 -182 23 -28 24 -28 67 -14 68
21 72 27 64 86 -6 47 -4 54 17 68 30 22 60 20 86 -4 18 -18 22 -32 22 -89 l0
-68 -47 -18 c-194 -72 -276 -159 -243 -259 18 -55 62 -86 120 -86 53 0 83 10
144 50 31 20 40 22 44 11 11 -33 55 -61 94 -61 68 0 148 50 134 85 -5 13 -10
14 -27 5 -39 -21 -44 -1 -49 200 -6 210 -10 223 -81 265 -43 25 -196 32 -251
11z m162 -345 c0 -95 -4 -104 -53 -116 -57 -15 -92 55 -61 120 14 30 82 85
107 85 4 0 7 -40 7 -89z"/>
<path d="M24175 3058 c-37 -13 -92 -53 -122 -87 -34 -39 -63 -125 -63 -185 0
-122 54 -216 152 -265 112 -57 243 -37 329 49 144 145 96 411 -88 480 -59 22
-157 26 -208 8z m152 -64 c33 -37 46 -97 47 -219 1 -127 -15 -196 -52 -225
-34 -27 -56 -25 -92 8 -45 40 -63 128 -58 267 5 117 18 160 60 190 29 20 66
12 95 -21z"/>
<path d="M24870 3059 c-14 -6 -40 -24 -57 -42 l-33 -31 0 37 0 37 -52 -1
c-103 -2 -163 -13 -166 -31 -2 -9 5 -19 16 -22 36 -12 42 -49 42 -250 0 -174
-2 -195 -18 -209 -10 -10 -24 -17 -30 -17 -7 0 -12 -7 -12 -15 0 -13 22 -15
140 -15 110 0 140 3 140 13 0 8 -11 19 -25 25 l-25 12 0 194 0 195 26 20 c34
27 66 27 90 0 16 -18 19 -41 22 -177 5 -173 -5 -237 -38 -247 -11 -4 -20 -13
-20 -21 0 -11 25 -14 140 -14 107 0 140 3 140 13 0 7 -13 17 -28 23 -38 15
-42 37 -42 251 0 196 -8 230 -64 264 -34 21 -104 24 -146 8z"/>
<path d="M26505 3058 c-37 -13 -92 -53 -122 -87 -34 -39 -63 -125 -63 -185 0
-122 54 -216 152 -265 112 -57 243 -37 329 49 144 145 96 411 -88 480 -59 22
-157 26 -208 8z m152 -64 c33 -37 46 -97 47 -219 1 -127 -15 -196 -52 -225
-34 -27 -56 -25 -92 8 -45 40 -63 128 -58 267 5 117 18 160 60 190 29 20 66
12 95 -21z"/>
<path d="M27295 3056 c-16 -7 -45 -27 -64 -45 -18 -17 -35 -31 -37 -31 -2 0
-4 18 -4 40 0 47 11 45 -172 29 -91 -9 -128 -16 -128 -25 0 -7 15 -16 33 -19
58 -13 57 -10 57 -236 0 -203 0 -208 -22 -223 -12 -9 -33 -16 -45 -16 -14 0
-23 -6 -23 -15 0 -13 30 -15 210 -15 173 0 210 2 210 14 0 8 -15 17 -35 20
-19 4 -43 18 -55 33 -18 23 -20 40 -20 169 0 152 7 185 45 202 19 9 34 6 74
-10 41 -18 58 -20 88 -12 65 16 82 85 33 134 -24 24 -98 27 -145 6z"/>
<path d="M28835 3046 c-54 -25 -93 -64 -128 -130 -18 -34 -22 -57 -22 -141 0
-89 3 -105 27 -151 30 -57 72 -97 127 -120 45 -20 162 -14 208 9 42 22 100 83
124 130 17 33 18 38 4 43 -10 4 -29 -7 -53 -33 -45 -48 -90 -67 -136 -59 -67
13 -117 77 -135 171 l-8 45 169 0 c156 0 169 1 164 18 -2 9 -7 36 -11 59 -23
146 -188 226 -330 159z m132 -34 c19 -12 43 -78 43 -117 l0 -35 -84 0 c-75 0
-84 2 -81 18 2 9 7 33 10 53 11 69 67 110 112 81z"/>
<path d="M29388 3056 c-108 -42 -148 -120 -94 -182 23 -28 24 -28 67 -14 68
21 72 27 64 86 -6 47 -4 54 17 68 30 22 60 20 86 -4 18 -18 22 -32 22 -89 l0
-68 -47 -18 c-194 -72 -276 -159 -243 -259 18 -55 62 -86 120 -86 53 0 83 10
144 50 31 20 40 22 44 11 11 -33 55 -61 94 -61 68 0 148 50 134 85 -5 13 -10
14 -27 5 -39 -21 -44 -1 -49 200 -6 210 -10 223 -81 265 -43 25 -196 32 -251
11z m162 -345 c0 -95 -4 -104 -53 -116 -57 -15 -92 55 -61 120 14 30 82 85
107 85 4 0 7 -40 7 -89z"/>
<path d="M31151 3039 l-31 -31 0 26 c0 23 -4 26 -32 26 -94 0 -141 -26 -102
-55 17 -12 19 -32 22 -229 3 -206 2 -216 -17 -235 -12 -12 -21 -25 -21 -31 0
-11 172 -14 183 -3 4 3 -2 16 -13 28 -19 21 -20 32 -18 221 l3 198 27 15 c49
28 53 13 53 -215 0 -184 -2 -207 -17 -218 -37 -27 -20 -36 72 -36 95 0 106 6
73 43 -16 16 -18 45 -21 202 l-4 182 26 29 c20 24 28 27 43 18 16 -10 18 -31
21 -216 2 -174 0 -207 -13 -218 -8 -7 -15 -19 -15 -26 0 -11 20 -14 90 -14 96
0 110 9 70 45 -19 17 -20 31 -20 196 0 258 -21 329 -97 329 -28 0 -44 -8 -74
-39 -22 -21 -39 -33 -39 -26 0 7 -11 24 -25 39 -35 37 -84 36 -124 -5z"/>
<path d="M31718 3056 c-108 -42 -148 -120 -94 -182 23 -28 24 -28 67 -14 68
21 72 27 64 86 -6 47 -4 54 17 68 30 22 60 20 86 -4 18 -18 22 -32 22 -89 l0
-68 -47 -18 c-194 -72 -276 -159 -243 -259 18 -55 62 -86 120 -86 53 0 83 10
144 50 31 20 40 22 44 11 11 -33 55 -61 94 -61 68 0 148 50 134 85 -5 13 -10
14 -27 5 -39 -21 -44 -1 -49 200 -6 210 -10 223 -81 265 -43 25 -196 32 -251
11z m162 -345 c0 -95 -4 -104 -53 -116 -57 -15 -92 55 -61 120 14 30 82 85
107 85 4 0 7 -40 7 -89z"/>
<path d="M33620 3059 c-14 -6 -40 -24 -57 -42 l-33 -31 0 37 0 37 -52 -1
c-103 -2 -163 -13 -166 -31 -2 -9 5 -19 16 -22 36 -12 42 -49 42 -250 0 -174
-2 -195 -18 -209 -10 -10 -24 -17 -30 -17 -7 0 -12 -7 -12 -15 0 -13 22 -15
140 -15 110 0 140 3 140 13 0 8 -11 19 -25 25 l-25 12 0 194 0 195 26 20 c34
27 66 27 90 0 16 -18 19 -41 22 -177 5 -173 -5 -237 -38 -247 -11 -4 -20 -13
-20 -21 0 -11 25 -14 140 -14 107 0 140 3 140 13 0 7 -13 17 -28 23 -38 15
-42 37 -42 251 0 196 -8 230 -64 264 -34 21 -104 24 -146 8z"/>
<path d="M34065 3055 c-60 -23 -112 -79 -124 -134 -17 -79 11 -156 70 -189 16
-10 29 -20 29 -24 0 -3 -15 -16 -34 -27 -69 -43 -85 -105 -40 -152 l26 -28
-41 -39 c-50 -48 -54 -81 -13 -122 71 -71 313 -79 432 -14 63 34 90 77 90 142
0 43 -5 57 -30 85 -38 43 -88 57 -217 58 -113 1 -147 8 -151 31 -5 25 34 40
117 45 93 6 168 37 201 84 31 42 39 129 17 182 l-16 37 40 0 c36 0 39 2 39 29
l0 28 -87 7 c-214 16 -267 16 -308 1z m134 -45 c68 -36 66 -258 -2 -275 -61
-16 -97 43 -97 158 0 60 4 79 21 101 21 27 48 33 78 16z m123 -554 c10 -4 20
-17 24 -28 18 -59 -118 -104 -230 -77 -65 15 -82 33 -73 71 11 41 58 54 168
47 52 -3 102 -9 111 -13z"/>
<path d="M14810 3048 c-63 -5 -121 -11 -127 -13 -24 -8 -13 -23 22 -29 22 -4
42 -17 55 -35 18 -27 20 -44 20 -213 0 -100 -4 -188 -8 -194 -11 -18 -48 -34
-76 -34 -16 0 -26 -6 -26 -15 0 -13 33 -15 240 -15 196 0 240 2 240 14 0 8
-15 16 -36 19 -74 12 -74 11 -74 284 l0 243 -57 -1 c-32 -1 -110 -6 -173 -11z"/>
<path d="M20060 3048 c-63 -5 -121 -11 -127 -13 -24 -8 -13 -23 22 -29 22 -4
42 -17 55 -35 18 -27 20 -44 20 -213 0 -100 -4 -188 -8 -194 -11 -18 -48 -34
-76 -34 -16 0 -26 -6 -26 -15 0 -13 33 -15 240 -15 196 0 240 2 240 14 0 8
-15 16 -36 19 -74 12 -74 11 -74 284 l0 243 -57 -1 c-32 -1 -110 -6 -173 -11z"/>
<path d="M21230 3048 c-63 -5 -121 -11 -127 -13 -24 -8 -13 -23 22 -29 22 -4
42 -17 55 -35 18 -27 20 -44 20 -213 0 -100 -4 -188 -8 -194 -11 -18 -48 -34
-76 -34 -16 0 -26 -6 -26 -15 0 -13 33 -15 240 -15 196 0 240 2 240 14 0 8
-15 16 -36 19 -74 12 -74 11 -74 284 l0 243 -57 -1 c-32 -1 -110 -6 -173 -11z"/>
<path d="M23560 3048 c-63 -5 -121 -11 -127 -13 -24 -8 -13 -23 22 -29 22 -4
42 -17 55 -35 18 -27 20 -44 20 -213 0 -100 -4 -188 -8 -194 -11 -18 -48 -34
-76 -34 -16 0 -26 -6 -26 -15 0 -13 33 -15 240 -15 196 0 240 2 240 14 0 8
-15 16 -36 19 -74 12 -74 11 -74 284 l0 243 -57 -1 c-32 -1 -110 -6 -173 -11z"/>
</g>
</svg>
