<svg xmlns="http://www.w3.org/2000/svg" viewBox="-15 -15 124 123" width="80px" height="80px">
<g transform="matrix(1 0 0 1 -1 -2)"><g style="transform-origin: 50px 50px; animation: 1s -.6s infinite trm">
<polygon points="50,13.6 57.1,5 61.3,15.3 70.7,9.4 71.4,20.5 82.2,17.8 79.5,28.6 90.6,29.3 84.7,38.7 95,42.9 86.4,50 95,57.1 84.7,61.3 90.6,70.7 79.5,71.4 82.2,82.2 71.4,79.5 70.7,90.6 61.3,84.7 57.1,95 50,86.4 42.9,95 38.7,84.7 29.3,90.6 28.6,79.5 17.8,82.2 20.5,71.4 9.4,70.7 15.3,61.3 5,57.1 13.6,50 5,42.9 15.3,38.7 9.4,29.3 20.5,28.6 17.8,17.8 28.6,20.5 29.3,9.4 38.7,15.3 42.9,5" fill="#d42027"/>
</g></g>
<g transform="matrix(1 0 0 1 -1 -2)"><g style="transform-origin: 82.55px 28.27px;animation: 1s -.54s infinite trm"><path d="M80.1,44c2.4-10.3,4.7-20.6,7.1-30.9c0.3-1.4-1.9-2-2.2-0.6c-2.4,10.3-4.7,20.6-7.1,30.9 C77.6,44.8,79.8,45.5,80.1,44z"/></g></g>
<g transform="matrix(1 0 0 1 -1 -2)">
<g style="transform-origin:83.31px 42.55px;animation: 1s -.48s infinite trm">
<path d="M88.9,15.5C83.5,33.1,79,50.9,75.5,69c-0.3,1.4,1.9,2,2.2,0.6c3.5-18.1,8-35.9,13.4-53.5 C91.5,14.7,89.3,14.1,88.9,15.5z"/></g></g>
<g transform="matrix(1 0 0 1 -1 -2)"><g style="transform-origin:71.78px 66.17px;animation:1s -0.42s infinite trm"><path d="M73.6,52.7c-1.6,8.9-3.5,17.7-5.8,26.4c-0.4,1.4,1.8,2,2.2,0.6c2.3-8.7,4.3-17.5,5.8-26.4 C76.1,51.9,73.9,51.2,73.6,52.7z"/></g></g>
<g transform="matrix(1 0 0 1 -1 -2)"><g style="transform-origin:82.6px 65.9px;animation: 1s -.36s infinite trm"><path d="M86.8,41.9C82.5,57.6,79,73.3,76.2,89.3c-0.3,1.4,1.9,2,2.2,0.6c2.8-15.9,6.4-31.7,10.6-47.4 C89.3,41.1,87.1,40.5,86.8,41.9z"/></g></g>
<g transform="matrix(1 0 0 1 -1 -2)"><g style="transform-origin:24.25px 67.45px;animation: 1s -.3s infinite trm"><path d="M26.2,54.9c-2,8.2-4.1,16.3-6.1,24.5c-0.4,1.4,1.8,2,2.2,0.6c2-8.2,4.1-16.3,6.1-24.5 C28.8,54.1,26.6,53.5,26.2,54.9z"/></g></g>
<g transform="matrix(1 0 0 1 -1 -2)"><g style="transform-origin:19.42px 69.4px;animation:1s -.24s infinite trm"><path d="M21.9,56.4c-2.8,8.4-5.2,16.8-7.2,25.4c-0.3,1.4,1.9,2,2.2,0.6c2-8.6,4.4-17,7.2-25.4C24.6,55.6,22.4,55,21.9,56.4z"/></g></g>
<g transform="matrix(1 0 0 1 -1 -2)"><g style="transform-origin:12.4px 69.41px;animation: 1s -.18s infinite trm"><path d="M13.7,57.8c-1.6,7.6-3.2,15.1-4.8,22.7c-0.3,1.4,1.9,2,2.2,0.6c1.6-7.6,3.2-15.1,4.8-22.7 C16.2,56.9,14,56.3,13.7,57.8z"/></g></g>
<g transform="matrix(1 0 0 1 -1 -2)">
<g style="transform-origin:14.12px 24.05px;animation:1s -.12s infinite trm"><path d="M12.6,33.9c1.2-6.5,3-12.9,5.2-19.1c0.5-1.4-1.7-2-2.2-0.6c-2.3,6.2-4,12.6-5.2,19.1C10.1,34.7,12.3,35.3,12.6,33.9 z"/></g></g>
<g transform="matrix(1 0 0 1 -1 -2)"><g style="transform-origin:44.11px 14.47px;animation:1s -.06s infinite trm"><path d="M43.7,18.8c0.9-2.7,1.9-5.4,3-8.1c0.6-1.4-1.6-1.9-2.2-0.6c-1.1,2.7-2.1,5.3-3,8.1C41,19.6,43.2,20.2,43.7,18.8z"/></g></g>
<g transform="matrix(1 0 0 1 -1 -2)"><g style="transform-origin:49.05px 17.58px;animation:1s infinite trm"><path d="M48.2,22.5c1.3-3.1,2.6-6.2,3.9-9.3c0.6-1.3-1.6-1.9-2.2-0.6c-1.3,3.1-2.6,6.2-3.9,9.3 C45.4,23.3,47.6,23.9,48.2,22.5z"/></g></g>

<g style="transform-origin:40.01px 63.89px;transform:scale(.92);animation: 0.33s infinite b1">
<g transform="matrix(1 0 0 1 -1 -2)"><path d="M39.9,74.7c0.5-3.6,1.2-7.1,2-10.6c-1-0.1-2-0.2-3-0.2c-0.8,3.8-1.4,7.6-1.8,11.5 c1,0.1,2.1,0.1,3.1,0.3C40,75.4,39.8,75.1,39.9,74.7z" fill="white"/></g>
<g transform="matrix(1 0 0 1 -1 -2)"><path d="M42.9,48.4c0.3,0.2,0.4,0.6,0.3,1.1c-1.5,4-2.7,8-3.7,12.1c1,0.1,2,0.1,3,0.3c1.2-4.4,2.7-8.7,4.6-12.9 c0.6-1.3,2.5-0.2,2,1.1c-1.7,3.9-3.1,8-4.3,12c0.9,0.1,1.8,0.3,2.8,0.5c0.9-3.2,1.9-6.3,3.1-9.4c0.5-1.4,2.7-0.8,2.2,0.6 c-1.2,3.1-2.2,6.2-3.1,9.3c1.5,0.4,3.1,0.8,4.6,1.3c1.4,0.5,0.8,2.7-0.6,2.2c-1.5-0.5-3-1-4.6-1.3c-1,3.7-1.7,7.5-2.3,11.4 c2.9,0.7,5.8,1.6,8.7,2.8c0,0,0.1,0,0.1,0.1C56.1,67,55.4,41.9,42.9,48.4z" fill="white"/></g>
<g transform="matrix(1 0 0 1 -1 -2)"><path d="M40.6,49.9c-3.6,2.9-6.1,7.4-8,11.7c1.5-0.1,3-0.1,4.6-0.1C38.1,57.6,39.2,53.7,40.6,49.9z" fill="white"/></g>
<g transform="matrix(1 0 0 1 -1 -2)"><path d="M31.7,63.9c-0.3,0.7-0.6,1.4-0.9,2.1c-1.3,3.2-2.4,6.4-3.2,9.7c2.4-0.3,4.9-0.4,7.3-0.3 c0.4-3.9,1-7.7,1.8-11.5c-1.5,0-3,0-4.5,0.1C31.9,63.9,31.8,63.9,31.7,63.9z" fill="white"/></g>
<g transform="matrix(1 0 0 1 -1 -2)"><path d="M44.2,64.4c-0.9,3.6-1.6,7.2-2.1,10.9c0,0.3-0.2,0.4-0.3,0.6c1,0.1,1.9,0.3,2.9,0.5 c0.6-3.9,1.3-7.7,2.3-11.4C46.1,64.7,45.1,64.5,44.2,64.4z" fill="white"/></g>
<g transform="matrix(1 0 0 1 -1 -2)"><path d="M45.4,45.1c-7.1,1.2-11.4,8.5-14.2,14.4c-4,8.3-6.8,17-7.5,26.2c-0.1,1.5,2.2,1.5,2.3,0c0.2-2.6,0.6-5.2,1.1-7.7 c2.5-0.3,5.1-0.4,7.6-0.4c0,0,0,0,0,0.1c-0.1,1.4,2.1,1.4,2.3,0c2.5,0.1,5,0.4,7.5,0.9c0,0.2-0.1,0.4-0.1,0.6 c-0.2,1.5,2.1,1.4,2.3,0c0,0,0,0,0-0.1c2.8,0.7,5.6,1.5,8.4,2.6c0.2,0.1,0.5,0.1,0.6,0.1c-0.1,1.5-0.1,2.7-0.2,3.5 c-0.1,1.5,2.2,1.5,2.3,0C58.2,77.3,61.4,42.5,45.4,45.1z M34.9,75.3c-2.4,0-4.8,0.1-7.3,0.3c0.8-3.3,1.9-6.5,3.2-9.7 c0.3-0.7,0.6-1.4,0.9-2.1c0.1,0,0.3,0.1,0.5,0.1c1.5-0.1,3-0.1,4.5-0.1C35.9,67.6,35.3,71.4,34.9,75.3z M32.6,61.6 c1.9-4.4,4.4-8.9,8-11.7c-1.4,3.8-2.5,7.7-3.4,11.6C35.7,61.5,34.1,61.5,32.6,61.6z M37.1,75.4c0.4-3.9,1-7.7,1.8-11.5 c1,0,2,0.1,3,0.2c-0.9,3.5-1.6,7-2,10.6c-0.1,0.4,0.1,0.7,0.3,1C39.2,75.5,38.2,75.4,37.1,75.4z M44.7,76.3 c-1-0.2-1.9-0.3-2.9-0.5c0.1-0.1,0.3-0.3,0.3-0.6c0.5-3.7,1.2-7.3,2.1-10.9c0.9,0.1,1.9,0.3,2.8,0.5 C46,68.6,45.2,72.4,44.7,76.3z M55.7,79.6c0,0-0.1,0-0.1-0.1c-2.9-1.2-5.8-2.1-8.7-2.8c0.5-3.9,1.3-7.7,2.3-11.4 c1.5,0.4,3.1,0.8,4.6,1.3c1.4,0.5,2-1.7,0.6-2.2c-1.5-0.5-3.1-1-4.6-1.3c0.9-3.1,1.9-6.2,3.1-9.3c0.5-1.4-1.7-2-2.2-0.6 c-1.2,3.1-2.2,6.2-3.1,9.4c-0.9-0.2-1.8-0.4-2.8-0.5c1.1-4.1,2.6-8.1,4.3-12c0.6-1.3-1.4-2.5-2-1.1 c-1.8,4.2-3.4,8.5-4.6,12.9c-1-0.1-2-0.2-3-0.3c1-4.1,2.2-8.1,3.7-12.1c0.2-0.5,0-0.8-0.3-1.1C55.4,41.9,56.1,67,55.7,79.6z"/></g>
</g>

<g style="transform-origin: 60.63px 30.5px;transform:scale(.82);animation: 1s -.33s infinite b2">
<g transform="matrix(1 0 0 1 -1 -2)"><path d="M71.4,26.3c-1.5-1.6-4.2-1.5-6.2-0.8c-2.3,0.7-4.4,2.2-6.1,4c-1.4,1.4-2.5,3.2-3.3,5 c-1.6,2-1.2,3.8,1.1,5.4c0.8,3.1,2.4,3.7,4.5,1.7c3-1.7,6.3-4.6,8.1-7.6C70.9,31.9,71.7,28.9,71.4,26.3z" fill="white"/></g>
<g transform="matrix(1 0 0 1 -1 -2)"><path d="M74.1,24.4c-0.3-0.4-0.6-0.7-0.9-0.9c-1-2.5-2.9-4.5-5.7-4.9C56.6,17.1,46,33.2,48.9,42.7 c0.4,1.4,2.6,0.8,2.2-0.6c-2.3-7.7,4.8-18.5,12.5-20.6c3.1-0.9,5.2-0.3,6.4,1c-2.5-0.1-5.3,0.7-7,1.4 c-4.7,2.1-8.1,6.4-9.9,11.1c-1.3,3.5-1.5,8.3,2.8,9.8c0.5,0.2,1,0.3,1.5,0.3c-0.1,0.8,0.7,1.7,1.7,1.3 c4.9-2.3,9-5.7,12-10.3C72.9,33.4,76.4,27.6,74.1,24.4z M61.5,41.6c-2.2,2-3.7,1.4-4.5-1.7c-2.4-1.5-2.7-3.3-1.1-5.4 c0.8-1.8,2-3.6,3.3-5c1.7-1.7,3.8-3.2,6.1-4c2.1-0.7,4.7-0.8,6.2,0.8c0.2,2.6-0.5,5.6-1.8,7.7 C67.8,37,64.5,39.9,61.5,41.6z"/></g>
</g>

<g style="transform-origin: 25.97px 26.38px; transform: scale(.82); animation: 1s infinite b2">
<g transform="matrix(1 0 0 1 -1 -2)"><path d="M29.9,24.2c-3.3,2.3-5.8,5.2-7.3,9c-0.3,0.8-0.9,2.2-1.1,3.4c0.2,0.7,0.4,1.3,0.7,1.9 c1.3,0.7,2.6,1.5,3.9,2.2c1.1-0.6,2.1-1.3,3-2.2c2.6-2.4,4.8-6.3,4.6-10c0.3-2.9-0.9-4.3-3.6-4.3 C30.1,24.3,30,24.2,29.9,24.2z" fill="white"/></g>
<g transform="matrix(1 0 0 1 -1 -2)"><path d="M19,25.4c-2.5,5.3-3.5,11.8-1.7,15.8c0.6,1.3,2.6,0.2,2-1.1c-3-6.7,4.6-25.5,12.5-18.9c-0.4-0.1-0.8-0.2-1.2-0.3 c-4.7-1-8.9,4.4-10.4,8.2c-1,2.3-1.3,5.4-0.7,8.1c-0.2,3.5,1,7,5.3,6.5c4.9,1.6,9.4-3.5,11.2-7.5 c2.1-4.8,2.5-11.3-1.3-15.4c-4.9-5.4-9.8-3.5-13.2,1c0.9-2.6,1.9-5.2,3-7.7c0.6-1.3-1.6-1.9-2.2-0.6 c-1.5,3.5-2.8,7.1-4,10.8C17.8,24.8,18.4,25.3,19,25.4z M26.6,23.9c-0.1,0.1-0.3,0.2-0.4,0.3 C26.3,24.1,26.5,24,26.6,23.9z M33.7,28.6c0.1,3.7-2,7.5-4.6,10c-0.9,0.9-1.9,1.6-3,2.2c-1.3-0.7-2.6-1.5-3.9-2.2 c-0.3-0.6-0.6-1.2-0.7-1.9c0.2-1.2,0.8-2.6,1.1-3.4c1.5-3.8,4-6.8,7.3-9c0.1,0.1,0.2,0.1,0.2,0.2 C32.9,24.3,34.1,25.7,33.7,28.6z"/></g>
</g>

<style>@keyframes trm {
0%{transform:translate(0px,0px)}
3.3%{transform:translate(-0.18px,1.45px)}
6.6%{transform:translate(-0.84px,-1.32px)}
10%{transform:translate(0.67px,1.0px)}
13.3%{transform:translate(-0.5px,0.83px)}
16.6%{transform:translate(1.31px,-0.51px)}
20%{transform:translate(-1.21px,1.49px)}
23.3%{transform:translate(1.09px,-0.21px)}
26.6%{transform:translate(-1.49px,0.56px)}
30%{transform:translate(1.48px,1.21px)}
33.3%{transform:translate(-1.43px,-1.15px)}
36.6%{transform:translate(1.35px,1.34px)}
40%{transform:translate(-1.42px,0.3px)}
43.3%{transform:translate(1.47px,-1.49px)}
46.6%{transform:translate(-0.92px,1.44px)}
50%{transform:translate(1.06px,-0.75px)}
53.3%{transform:translate(-1.19px,-1.07px)}
56.6%{transform:translate(0.28px,0.79px)}
60%{transform:translate(-0.47px,-1.42px)}
63.3%{transform:translate(0.64px,-0.09px)}
66.6%{transform:translate(0.41px,-0.26px)}
70%{transform:translate(-0.22px,-1.36px)}
73.3%{transform:translate(0.03px,0.92px)}
76.6%{transform:translate(-1.01px,-1.18px)}
80%{transform:translate(0.87px,-0.6px)}
83.3%{transform:translate(-0.71px,1.47px)}
86.6%{transform:translate(1.4px,-1.49px)}
90%{transform:translate(-1.33px,0.46px)}
93.3%{transform:translate(1.23px,1.26px)}
96.6%{transform:translate(-1.48px,-1.03px)}
100%{transform:translate(0,0)}
}
@keyframes b1 {
0%{animation-timing-function:cubic-bezier(.67,.3,.21,.71);transform:scale(.92)}
51%{animation-timing-function: cubic-bezier(.62,.31,.28,.7);transform:scale(1);}
100%{transform:scale(.92);}}
@keyframes b2 {
0%{animation-timing-function:cubic-bezier(.67,.3,.21,.71);transform:scale(.82)}
51%{animation-timing-function: cubic-bezier(.62,.31,.28,.7);transform:scale(1.1197)}
100%{transform:scale(.82)}
}</style>
</svg>
