<?xml version="1.0"?><svg version="1.1" id="圖層_1" xmlns="http://www.w3.org/2000/svg" x="0" y="0" viewBox="0 0 100 100" xml:space="preserve"><path d="M46.34 46.762a18.731 18.731 0 0 1-2.901-.584 18.777 18.777 0 0 1-4.026-1.667 18.672 18.672 0 0 1-7.358-7.514" fill="none" stroke="#e0e0e0" stroke-width="6" stroke-miterlimit="10"/><path d="M32.391 75.559l2.077 3.725-3.725 2.077 2.077 3.725-4.687 2.613 4.702 6.605 7.707-3.244 8.874-31.237a6.527 6.527 0 1 0-12.557-3.567L33.366 68.55l2.75 4.932-3.725 2.077z" fill="#f47e60"/><path d="M59.432 55.464c2.215-7.796-2.31-15.912-10.106-18.127-7.796-2.215-15.912 2.31-18.127 10.106-2.215 7.796 2.31 15.912 10.106 18.127 7.796 2.215 15.912-2.31 18.127-10.106zm-16.569-9.723a3.92 3.92 0 1 1 7.543 2.144 3.92 3.92 0 0 1-7.543-2.144z" fill="#f47e60"/><path d="M57.059 78.489l3.661 2.187-2.187 3.661 3.661 2.187-2.753 4.607 7.375 3.369 5.052-6.663-7.933-31.489a6.526 6.526 0 0 0-12.657 3.189l3.123 12.395 4.847 2.896-2.189 3.661z" fill="#f8b26a"/><path d="M54.738 45.837a18.593 18.593 0 0 1-8.398.925" fill="none" stroke="#e0e0e0" stroke-width="6" stroke-miterlimit="10"/><path d="M70.429 47.566c-1.98-7.859-9.956-12.625-17.816-10.645-7.859 1.98-12.625 9.956-10.645 17.816 1.98 7.859 9.956 12.626 17.816 10.645 7.859-1.98 12.625-9.956 10.645-17.816zm-19.21-.135a3.92 3.92 0 1 1 7.603-1.915 3.92 3.92 0 0 1-7.603 1.915z" fill="#f8b26a"/><path d="M32.056 36.998a18.633 18.633 0 0 1-1.49-13.909c2.821-9.931 13.159-15.694 23.09-12.873s15.694 13.159 12.873 23.09c-1.725 6.071-6.258 10.584-11.79 12.531" fill="none" stroke="#e0e0e0" stroke-width="6" stroke-miterlimit="10"/><metadata xmlns:d="https://loading.io/stock/">
<d:name>keychain</d:name>
<d:tags>keychain,unlock,access,token,secret,password,door</d:tags>
<d:license>by</d:license>
<d:slug>ye0ufo</d:slug>
</metadata></svg>