<svg xmlns="http://www.w3.org/2000/svg" version="1.1" xmlns:xlink="http://www.w3.org/1999/xlink" xmlns:svgjs="http://svgjs.dev/svgjs" viewBox="0 0 1422 800" opacity="1"><defs><linearGradient x1="50%" y1="0%" x2="50%" y2="100%" id="ssscribble-grad"><stop stop-color="hsl(0, 0%, 65%)" stop-opacity="1" offset="0%"></stop><stop stop-color="hsl(0, 0%, 89%)" stop-opacity="1" offset="100%"></stop></linearGradient></defs><g fill="none" stroke-width="1" stroke="url(#ssscribble-grad)" stroke-linecap="round"><path d="M1763.88 562.49C1641.76 592.31 1451.11 617.3 1382.02 636.75 1588.54 660.65 1546.27 663.02 1346.1 639.3 1483.79 611.29 1587.87 589.09 1344.81 635.26 1266.46 699.35 1320.12 788.04 1450.72 893.92 1566.49 997.7 1583.71 1086.32 1492.35 1139.75 1337.57 1146.07 1198.05 1103.73 1130.98 1024.37 1153.23 940.92 1238.1 881.27 1334.5 876.89 1402.61 940.89 1407.82 1060.12 1351.37 1198.04 1247.78 1302.02 1127.71 1333.36 1018.5 1277.55 932.39 1166.38 882.81 1054.32 865.19 1005.67 874.97 1056.21 898.86 1187.53 924.98 1336.05 954.94 1421.54 974.79 1397.13 982.27 1276.18 985.66 1137.04 977.5 1066.65 960.17 1116.44 941.07 1259.24 915.96 1404.3 886.14 1453.92 856.31 1373.78 822.48 1219.01 783.5 1092.96 742.73 1075.19 693.65 1171.79 634.02 1315.32 570.29 1416.73 495.2 1410.16 411.13 1300.75 330.9 1148.37 254.04 1034.88 192.58 1013.09 158.51 1086.61 157.69 1206.79 194.83 1306.6 255.07 1337.41 327.61 1279.85 385.23 1159.78 395.71 1021.69 346.12 917.51 235.33 876.66 96.26 904.27 -29.55 978.51 -90.89 1064.24 -62.91 1133.77 39.38 1158.19 158.94 1131.75 215.09 1060.16 164.66 960.31 17.84 853.47 -143.8 752.37 -226.36 674.36 -174.61 623.87 -32.57 600.2 91.95 599.16 90.3 611.79 -139.97 648.75 -127.97 700.78 54.87 701.25 -25.52 694.75 -214.93 679.94 -337.04 658.76 -273.85 636.37 -86.22 609.82 35.89 580 -36.76 550.18 -225.56 517.78 -337.79 482.08 -264 445.18 -75.09 402.74 51.23 353 4.55 299.84 -161.85 237.49 -290.26 165.94 -266.67 93.08 -106.75 15.54 60.48 -60.81 112.26 -125.13 21.39 -174.49 -127.03 -199.78 -219.3 -198.26 -181.25 -167.79 -38.68 -112.65 170.52 -24.05 38.12 -16.32 -81.21 -157.62 -57.95 -282.44 43.73 -393.91 180.51 -456.73 309.98 -451.09 390.06 -380.13 410.06 -273.09 375.48 -184.07 311.58 -155.41 246.26 -212.82 192.66 -339.23 171.55 -483.72 183.69 -579.1 224.57 -579.17 286.77 -485.1 358.5 -349.55 438.8 -256.97 514.64 -264.64 581.6 -377.56 646.68 -532.6 701.25 -637.97 746.29 -626.11 789.96 -505.96 826.34 -354.21 856.16 -274.07 885.99 -323.69 908.55 -465.73 922.98 -602.63 936.03 -646.51 938.7 -567.35 929.87 -416.7 919.16 -284.24 898.56 -245.59 872.38 -314.25 854.75 -445.94 845.51 -557.84 856.3 -586.52 895.84 -516.02 967.34 -379.65 1069.9 -241.88 1184.18 -159.47 1295.63 -161.91 1376.19 -234.84 1402.17 -341.7 1366.5 -427.72 1279.71 -456.51 1185.6 -416.91 1124.84 -320.03 1140.65 -197.5 1241.25 -79.05 1394.07 4.23 1532.03 40.59 1584.64 29.82 1526.89 -14.4 1394.22 -72.21 1282.69 -132.12 1273.51 -173.28 1392.36 -188.4 1567.39 -178.33 1682.59 -142.46 1652.7 -88.55 1507.34 -19.91 1366.82 53.61 1360.01 125.44 1505.23 198.29 1685.89 263.5 1744.13 320.09 1629.35 374.13 1449.21 420.37 1381.26 460.07 1499.34 498.7 1691.17 532.66 1763.89 562.48Q1763.88 562.49 1763.88 562.49" opacity="0.27"></path><path d="M1715.89 333.77C1512.79 372.23 1497.31 414.64 1694.91 423.8 1652.65 432.06 1489.1 440.85 1333.78 454.35 1300.01 477.52 1403.18 511.93 1553.83 561.65 1639.63 624.83 1593.43 703.45 1447.12 793.96 1288.82 883.83 1211.45 968.18 1245.86 1033.83 1361.28 1068.76 1478.48 1067.39 1529.1 1027.73 1486.26 964 1367.29 889.11 1225.19 827.45 1109.4 806.42 1059.44 837.74 1077.43 923.93 1147.68 1044.2 1232.15 1167.92 1297.69 1255.21 1328.26 1275.99 1310.54 1223.82 1253.03 1119.62 1165.22 1014.53 1066.63 956.07 972.65 980.38 886.19 1084.76 819.15 1227.3 770.81 1342.78 737.1 1374.93 716.05 1307.85 701.4 1176.53 693.29 1057.76 684.3 1018.6 670.71 1087.76 658.34 1229.28 638.65 1362.26 610.49 1405.91 582.32 1333.04 546.34 1188.75 503.85 1059.9 462.57 1019.65 417.5 1086.79 372.5 1217.06 334.03 1337.64 302.89 1378.18 285.5 1318.26 282.74 1187.51 299.76 1049.67 337.4 966.5 382.57 969.87 433.56 1049.22 475.13 1159.86 486.39 1252.67 459.21 1282.1 385.23 1236.9 276.28 1132.02 149.88 1003.98 39.33 892.76 -18.95 825.68 -7.66 816.45 71.19 855.86 176.38 928.19 260.19 1003.37 269.77 1058.4 185.9 1082.56 37.33 1066.17 -107.41 1015.02 -171.14 936.41 -121.06 844.9 12.11 753.6 133.29 666.79 156.53 595.67 50.09 541.91 -181.95 491.38 -10.35 459.15 96.07 454.2 -116.53 449.98 -117.76 411.27 83.9 373.03 19.94 344.87 -156.52 309.35 -282.67 267.09 -247.77 225.15 -81.63 177.31 73.58 125.3 93.64 75.94 -29.24 26.13 -185.99 -19.95 -251.36 -56.94 -170.09 -83.1 -2.98 -93.33 137.11 -88.38 160.31 -64.85 66.88 -24.3 -73.81 20.75 -160.52 67.36 -138.64 102.56 -17.91 110.3 137.42 84.77 252.43 20.31 282.58 -75.02 226.67 -188.88 126.7 -298.12 29.78 -374.44 -13.47 -400.37 12.41 -366.55 99.79 -288.6 219.97 -191.91 338.73 -116.36 434.97 -100.49 488.87 -157.21 501.83 -275.15 479.21 -410.92 437.69 -513.22 393.26 -537.23 348.84 -474.71 320.22 -355.2 309.65 -240.35 311.78 -196.32 329.39 -250.31 357.09 -381.76 391.91 -522.9 429.84 -598.33 466.7 -563.66 505.16 -440.38 539.22 -298.94 567.39 -226.07 595.55 -269.72 617.16 -399.85 633.56 -535.79 651.56 -599.38 667.7 -551.93 686 -422.29 711.42 -280.1 745.99 -199.57 794.96 -215.83 856.63 -315.41 935.27 -439.62 1028.5 -523.35 1121.75 -527.02 1210.87 -445.6 1279.74 -315.38 1313.02 -186.07 1304.02 -106.6 1251.19 -98.05 1175.85 -156.02 1097.59 -248.37 1050.51 -335.38 1064.92 -388.32 1146.86 -384.47 1280.69 -326.53 1417.58 -227.96 1508.65 -114.39 1511.75 -10.35 1323.54 85.32 1620.33 -43.7 1500.75 -73.59 1354.28 -74.5 1291.36 -58.88 1372.62 -30.94 1545.27 6.65 1681.61 50.04 1672.41 94.89 1528.06 143.13 1370.22 188.65 1340.89 229.31 1472.6 270.53 1651.93 305.61 1715.89 333.77Q1715.89 333.77 1715.89 333.77" opacity="0.93"></path><path d="M1667.9 211.26C1566.49 237.77 1392.9 265.23 1287.43 294.31 1330.48 324.43 1482.04 358.12 1620.26 397.14 1641.54 439.53 1527.76 489.7 1361.27 548.76 1252.47 611.44 1268.55 681.76 1386.16 756.82 1524.44 827.46 1587.72 893.22 1537.66 946.2 1400.66 978.83 1251.11 987.31 1161.61 967.79 1166.92 927.03 1251.86 868.49 1363.09 804.97 1448.06 757.87 1461.91 738.41 1400.92 760.47 1285.17 826.59 1155.84 928.55 1050.72 1046.42 990.89 1148.88 985.53 1210.95 1021.86 1212.45 1086.41 1155.79 1152.01 1059.54 1200.75 960.86 1227.77 905.02 1223.58 917.44 1193.04 1002.79 1140.67 1131.71 1075.49 1255.87 1006.64 1322.7 933.02 1303.64 865.39 1206.98 806.42 1078.66 749.43 986.38 701.58 977.14 661.92 1061.49 623.37 1199.14 591.12 1319.88 564.61 1357.91 538.1 1292.09 517.96 1158.78 504.87 1029.85 492.9 970.68 489.87 1008.09 496.86 1117.43 505.83 1243.85 524.35 1321.06 549.88 1313.01 570.63 1223.47 588.73 1091.27 595.16 971.52 579.76 908.32 539.15 921.24 468.6 995.63 376.33 1099.84 268.47 1187.01 163.07 1224.32 85.88 1199.55 51.79 1118.51 73.68 1006.63 140.87 890.73 233.81 800.9 314.81 752.75 341.06 750.53 294.12 786.22 177.84 842.99 -21.91 935.38 11.77 986.1 187.05 928.81 213.47 864.73 128.59 791.61 -29.11 717.24 -166.16 641.47 -199.5 573.12 -105.66 514.02 45.87 460.13 146.98 415.4 115.47 377.98 -32.97 344.34 -192.33 314.96 -240.62 287.81 -140.39 261.73 30.5 235.81 131.91 209.3 76.27 182.79 -86.69 156.32 -221.95 130.76 -223.48 106.28 -89.24 84.78 76.78 68.43 154.71 55.85 93.8 51.47 -51.76 57.27 -177.01 68.27 -189.76 89.54 -82.73 119.37 138.74 161.95 64.06 189.3 -91.49 133.6 -98.88 62.42 -14 -30.38 122.16 -134.03 268.89 -278.17 69.03 -72.26 124.45 -49.34 214.95 -114.25 320.35 -227.11 420.63 -354.96 507.61 -453 568.16 -487.52 603.05 -443.76 591.91 -245.86 542.82 -529.52 552 -498.2 561.98 -374.51 580.37 -243.89 606.88 -178.07 633.39 -216.1 667.39 -334.15 709.05 -466.56 751.42 -545.67 802.47 -528.62 862.1 -426.11 921.85 -287.56 987.86 -178.24 1055.97 -144.23 1115.82 -196.09 1167.11 -303 1200.93 -412.48 1211.98 -478.4 1196.23 -469.22 1152.78 -389.74 1096.03 -267.41 1032.88 -145.47 983.23 -61.21 971.01 -35.1 1005.8 -67.66 1092.25 -138.81 1211.35 -225.38 1337.09 -294.25 1430.21 -325.63 1457.67 -312.94 1410.59 -257.08 1307.4 -172.06 1202.54 -70.6 1147.17 27.38 1182.17 109 1301.5 169.38 1454.85 203.16 1565.11 214.06 1572.67 204.6 1474.91 183.64 1332.55 158.95 1244.95 129.82 1274.95 106.59 1415.17 92 1575.7 81.04 1649.26 79.98 1581.56 87.59 1425.77 98.56 1299.32 115.74 1306.1 137.26 1446.6 159.82 1612.26 184.75 1667.9 211.26Q1667.9 211.26 1667.9 211.26" opacity="0.58"></path><path d="M1619.89 391.45C1528.36 416.3 1365.65 447.73 1248.8 485.34 1257.21 522.89 1379.7 566.35 1527.05 614.73 1601.29 661.81 1550.91 711.61 1409.89 761.32 1261.95 805.13 1192.64 843.33 1232.41 871.24 1352.12 886.29 1475.41 885.55 1532.61 866.74 1494.06 835.64 1376.64 791.56 1235.72 741.21 1127.34 699.15 1092.75 670.68 1133.09 667.31 1225.47 696.97 1322.99 760.12 1385.99 852.16 1394.44 956.31 1342.53 1056.51 1248.55 1130.54 1133.2 1160.38 1026.68 1139.11 947.81 1071.37 900.18 939.47 981.12 899.51 1043.99 1054.42 1087.45 1216.92 1080.5 1155.42 1043 986.32 1010.13 924.11 975.58 942.08 942.57 1037.31 908.34 1168.82 878.2 1277.22 853.35 1309.91 828.49 1250.79 809.52 1128.79 795.33 1002.38 779.94 928.3 766.79 937.43 752.79 1020.52 733.32 1140.25 707.48 1240.25 670.79 1278.28 623.24 1239.89 560.92 1139.02 483.48 1014.38 400.51 907.71 312.56 854.05 230.38 864.29 169.45 930.29 136.91 1022.39 142.7 1106.8 183.26 1159.15 252.79 1159.94 332.58 1110.45 391 1021.85 408.78 915.87 367.77 815 272.19 734.14 143.65 686.82 21.92 674 -47.76 693.05 -40.84 732.79 41.66 780.73 156.7 831.61 250.03 871.31 266.42 894.67 187.05 902.96 43.51 892.55 -94.41 866.99 -152.4 828.86 -99.26 782.38 34.64 732.36 161.63 677.6 200.14 624.57 116.32 575.67 -40.62 526.2 -170.42 482.41 -183.75 444.88 -71.81 407.5 88.37 376.26 179.9 351.41 132.12 326.56 -16.46 308.67 -156.09 297.65 -189.87 286.77 -93.28 282.86 66.01 285.46 185.42 287.49 191.52 294.48 89.87 304.14 -52.61 309.08 -142.03 311.42 -125.54 306.48 -11.6 288.97 138.42 257.38 249.23 208.28 273.01 144.12 207.67 64.8 96.5 -24.38 -6.81 -110.62 -48.53 -187.35 -12.18 -241.96 89.5 -264.7 218.63 -251.51 332.84 -203.22 403.97 -134.92 416.51 -59.96 379.87 -0.71 309.18 19.42 234.34 -9.02 177.7 -87.25 148.48 -197.54 156.93 -313.72 197.6 -401.89 264.59 -434.3 345.1 -400.89 427.5 -312.44 510.24 -206.01 581.76 -121.33 640.09 -96.96 689.49 -149.01 726.99 -260.88 756.12 -390.2 779.68 -482.89 799.87 -499.33 819.83 -430.16 838.37 -308.67 859.51 -189.19 884.36 -130.07 909.21 -162.76 937.2 -268.64 967.06 -395.24 995.51 -485.55 1023.02 -496.2 1046.33 -424.4 1064.07 -301.19 1072.61 -178.37 1068.3 -103.66 1055.06 -102.68 1027.68 -169.74 988.01 -272.4 948.68 -371.76 910.17 -426.16 883.98 -416.95 884.13 -346.99 915.29 -238.02 982.82 -122.69 1077.76 -29.06 1189.59 19.87 1295.84 19.37 1368.04 -25.3 1389.63 -94.48 1351.07 -166.06 1269.44 -225.52 1171.32 -254.55 1098.98 -248.65 1091.98 -209.72 1161.36 -144.26 1290.56 -63.89 1427.61 24.75 1517.03 108.44 1515.42 180.35 1426.78 239.97 1297 282.71 1201.28 310.73 1203.01 325.89 1308.6 331.83 1465.12 333.11 1580.8 328.49 1586.57 324.73 1476.74 324.52 1327.03 323.01 1237.76 327.25 1276.46 338.11 1421 348.9 1572.11 366.59 1619.89 391.45Q1619.89 391.45 1619.89 391.45" opacity="0.60"></path><path d="M1571.89 585.32C1489.87 608.52 1339.25 632.88 1215.63 657.69 1193.03 681.69 1280.87 704.52 1420.83 724.4 1530.93 741.19 1544.36 752.25 1455.63 755.41 1311.5 753.14 1186.9 741.17 1139.6 719.16 1186.36 693.77 1295.56 662.08 1408.58 628.37 1474.13 602.63 1458.9 586.01 1371.31 585.8 1243.11 607.98 1122.42 653.99 1046.7 724 1033.34 809.64 1077.94 903.98 1155.79 993.3 1242.38 1060.69 1304.68 1095.83 1326.31 1089.73 1303.89 1045.86 1241.87 972.54 1155.9 888.73 1057.27 822.39 965.21 792.14 890.17 813.45 834.18 886 801.76 993.96 788.55 1108.5 792.18 1194.39 805.04 1225.65 820.53 1190.32 840.93 1102.9 856.68 993.04 865.3 903.09 873.44 871.82 873.27 912.93 864.96 1014.6 856.07 1137.97 839.92 1234.16 816.72 1261.92 793.52 1209.27 763.83 1098.81 727.54 977.23 690.67 892.38 646.33 875.98 594.44 930 542.07 1032.54 483.35 1140.23 420.87 1212.28 363.29 1224.53 309.23 1171.01 265.41 1070.93 238.42 954.26 231.64 856.5 249.54 802.54 286.5 802.98 341.57 851.4 404.46 927.83 454.67 1011.75 482.17 1075.66 471.4 1103.73 416.58 1090.95 322.43 1038.66 205.44 959.04 97.19 863.84 23.64 770.84 9.6 692.5 57.93 634.55 152.8 602.65 256.84 594.36 320.28 607.43 313.03 633.79 226.8 665.69 93.08 702.33 -35.01 733.64 -98.78 756.22 -68.48 773.24 41.02 779.19 172.06 775.25 247.69 765.19 223.19 747.94 104.13 726 -44.76 700.96 -139.43 674.22 -121.42 647.63 -2.39 620.28 145.87 594.63 227.89 571.44 187.52 548.24 53.96 528.05 -85.54 510.21 -146.15 491.62 -89.53 473.84 48.05 455.14 188.3 433.33 253.45 407.62 214.65 375.59 97.5 337.45 -27.91 290.31 -94.1 233.1 -68.54 170.32 38.12 99.81 175.75 25.09 288.62 -44.89 332.27 -108.23 299.39 -157.07 209.14 -184.53 106.52 -187.16 33.77 -162.42 15.14 -117.27 59.92 -56.12 151.56 8.67 267.42 57.89 375.26 81.25 453.06 66.65 491.12 11.19 487.54 -78.52 453.56 -186.6 397.92 -287.18 340.31 -358.09 293.43 -379.24 259.67 -345.98 248.6 -267.13 258.48 -167.46 285.83 -84.38 327.01 -45.94 375.5 -71.26 431.38 -156.38 486.71 -275.14 537.9 -386.64 590.06 -449.64 635.58 -440.09 673.7 -359.85 711.6 -242.87 742.25 -134.74 765.45 -82.06 788.64 -109.79 803.83 -203.62 811.11 -322.39 818.18 -419.49 817.18 -453.81 808.77 -413.61 801.32 -314.71 788.96 -193.77 775.17 -93.25 768.76 -44.82 768.77 -60.97 781.63 -129.84 811.94 -227.38 862.21 -316.44 934.06 -368.32 1019.03 -368.94 1113.61 -316.22 1205.01 -225.73 1274.74 -117.76 1312.84 -18.61 1307.98 52.63 1263.36 86.13 1187.38 79.95 1101.91 42.96 1040.67 -15.95 1024.85 -78.43 1070.87 -130.89 1171.01 -167.72 1299.46 -179.2 1413.86 -165.63 1470.9 -129.67 1449.72 -76.07 1357.55 -12.25 1240.6 59.54 1152.84 130.43 1144.28 196.02 1227.47 258.23 1367.99 311.39 1498.23 355.74 1550.12 394.67 1496.05 426.59 1364.75 453.54 1236.11 477.41 1186.31 499.09 1251.51 520.28 1395.61 540.65 1531.52 562.12 1571.89 585.32Q1571.89 585.32 1571.89 585.32" opacity="0.86"></path><path d="M1523.9 481.99C1451.09 503.53 1313.54 519.39 1187.52 529.58 1138.76 539.53 1189.7 543.43 1308.42 541.3 1434.14 538.95 1499.99 531.03 1475.27 518.65 1371.85 508.29 1236.98 496.59 1128.53 486.7 1087.46 484.73 1125.02 490.53 1217.14 508.22 1325.67 540.07 1402.39 587.42 1419.26 650.6 1371 723.78 1273.12 804.85 1157.02 886.11 1017.79 981.52 1021.72 1007.23 1120.55 926.7 1209.58 822.61 1210.01 755.9 1127.96 850.79 1053.2 952.02 976.3 1056.47 904.36 1137.74 836.33 1173.81 779.8 1154.71 734.64 1084.67 697.08 987.68 668.45 892.3 645.76 831.59 627.27 829.71 610.79 889.1 593.96 992.98 578.18 1106.55 559.95 1190.74 538.41 1213.91 516.87 1167.39 492.53 1068.52 466.36 953.81 441.23 862.44 416.37 824.51 394.25 849.24 376.32 927.03 365.04 1028.12 363.52 1118.3 369.6 1171.33 387.88 1168.84 418.59 1113.05 453.2 1018.91 493.69 911.94 533.09 818.44 558.55 757.48 566.66 740.56 548.44 765.3 500.72 823.63 424.45 896.3 326.71 964.77 226.41 1017.37 138.13 1040.07 82.52 1030.18 73.48 989.96 113.81 925.92 194 848.53 284.67 764.4 358.56 685.45 384.39 618.31 345.11 564.45 247.51 527.9 119.76 506.96 8.43 500.28 -46.67 503.91 -21.39 513.36 71.27 529.37 192.12 545.13 283.38 557.82 295.95 571.35 219.81 579.3 85.78 581.03 -41.25 581.99 -98.53 576.83 -54.02 565.86 67.72 554.52 203.09 538.01 275.9 516.47 242.33 494.93 124.08 468.87 -11.16 438.27 -92.12 407.29 -74.23 371.11 30.72 329.53 170.4 287.18 276.38 239.33 302.4 186.73 240.83 134.96 127.04 80.94 17.08 27.6 -41.95 -19.17 -21.85 -59.21 67.19 -87.9 192.93 -102.33 308.77 -100.12 378.4 -79.47 384.95 -45.52 333.89 1.35 250.41 54.66 129.49 118.48 143.14 104.6 270.43 1.79 371.84 -92.11 461.39 -188.77 528.01 -269.52 568.38 -316.71 580.7 -320.67 571.42 -278.94 543.74 -204.66 508.87 -115.24 474.68 -36.88 439.98 3.13 414.68 -8.38 400.22 -73.54 391.64 -175.87 393.37 -287.25 403.14 -373.37 416.93 -406.43 435.4 -374.86 456.28 -287.77 478.26 -177.33 500.48 -80.62 522.02 -34.07 543.56 -57.21 563.9 -139.21 583.88 -248.51 604.96 -348.15 627.82 -401.22 654.66 -391.05 685.5 -322.04 723.67 -216.38 771.34 -107.23 824.87 -25.02 888.43 8.11 960.46 -12.15 1031.97 -77.63 1103.24 -164.53 1166.29 -246.55 1210.94 -304.1 1232.95 -319.51 1225.78 -290.47 1192.36 -223.23 1134.87 -132.43 1064.28 -36.31 1002.53 51.17 962.64 115.01 962.14 149.34 1008.93 153.1 1098.34 131.06 1213.43 92.27 1322.34 41.83 1397.39 -7.17 1413.27 -47.16 1366.07 -77.14 1271.1 -90.15 1164.57 -86.64 1094.73 -68.96 1092.18 -38.36 1167.01 0.93 1292.75 48.14 1420.57 98.09 1494.3 147.54 1480.43 198.99 1384.74 246.81 1253.37 289.78 1156.72 332.54 1145.16 369.98 1230.39 401.98 1369.9 433.75 1490.33 460.45 1523.9 481.99Q1523.9 481.99 1523.9 481.99" opacity="0.76"></path><path d="M1475.89 247.15C1411.81 267.03 1288 283.45 1163.77 296.87 1094.8 310.81 1109.99 322.8 1197.75 334.11 1318.99 347.6 1417.42 362.63 1452.07 381.17 1410.19 404.59 1307.91 434.33 1184.96 472.17 1082.82 516.58 1035.62 569.87 1052.6 631.45 1124.05 695.79 1219.44 763.35 1304.9 829.37 1356.41 886.08 1355.78 930.78 1305.48 957.31 1217.29 962.57 1113.74 944.76 1017.24 904.71 942.22 851.31 901.65 789.73 895.75 731.41 921.3 691.5 966.69 677.39 1019.28 696.9 1073.72 750.5 1116.18 831.99 1141.83 928.52 1151.93 1020.34 1143.42 1090.25 1120.08 1121.7 1084.29 1107.81 1040.69 1050.86 994.07 964.47 942.98 874.36 894.07 803.32 849.62 773.75 804.76 797.55 765.78 869.76 733.17 971.92 700.75 1074.41 674.5 1146.97 654.62 1165.92 634.74 1125.21 621.69 1037.84 615.39 931.72 609.68 810.61 630.44 871.15 651.5 1004.27 662.05 1081.89 670.33 1122.43 671.67 1116.75 660.56 1066.91 635.47 984.37 592.72 888.05 534.43 795.67 460.27 725.65 375.18 687.93 291.96 685.99 216.97 715.57 162.97 766.37 140.43 829.9 153.69 890.31 202.65 937.13 273.09 966.16 351.83 970.72 416.54 951.96 443.36 912.52 421.86 857.5 349.65 793.69 243.48 723.66 128.83 655.47 39.64 593.23 4.92 536.19 35.92 488.94 123.49 451.23 231.87 420.99 321.2 398.51 351.86 381.55 305.99 369.45 198.07 359.75 69.16 350.41 -26.26 343.05 -47.31 333.91 17.72 321.8 138.01 310.12 259.81 294.57 323.89 274.69 296.66 254.81 193.83 231.07 66.42 204.02 -28.11 177.4 -44.83 148.38 21.47 118.24 141.85 90.09 265.05 62.96 342.53 38.98 347.21 19.87 282.46 7.04 179.34 2.82 76.55 6.07 16.27 19.72 18.64 44.12 82.41 73.71 187 110.21 300.21 149.6 418.94 195.48 364.87 193.56 254.52 122.55 189.97 49.67 154.6 -35.55 153.63 -122.55 185.74 -196.83 244.98 -248.55 320.01 -267.31 404.35 -250.29 484.61 -199.54 553.71 -124.89 611.15 -46.31 651.82 20.02 677.61 55.29 690.54 46.39 693.82 -7.09 691.95 -95.92 683.99 -198.83 676.41 -291.2 672.01 -347.79 666.16 -352.98 665.8 -304.18 671.88 -214.32 677.86 -112.14 690.63 -26.78 710.51 13.92 730.39 -5.02 756.91 -75.57 789.65 -174.12 822.3 -272.35 860.82 -338.71 904.16 -354.84 946.05 -317.59 990.46 -237.06 1034.5 -135.72 1088.47 -3.17 1131.17 16.5 1102.85 -84.43 1066.4 -163.23 1017.83 -225.45 964.13 -258.35 919.74 -257.16 890.08 -220.91 886.41 -157.52 915.81 -75.72 978.47 10.66 1069.08 90.12 1170.15 156.23 1265.64 201.35 1333.5 224.53 1356.4 226.45 1328.47 211.34 1255.5 185.28 1163 149.89 1077.66 114.03 1031.61 82.34 1046.96 53.4 1123.42 33.71 1240.77 23.75 1358.47 20.37 1436.18 25.94 1442.75 38.6 1376.51 56.12 1262.82 77.93 1150.1 101.93 1091.44 128.12 1113.98 154.29 1212.42 179.08 1343.75 204.38 1448.63 227.26 1475.9 247.14Q1475.89 247.15 1475.89 247.15" opacity="0.98"></path><path d="M1427.9 257.44C1372.19 275.67 1262.54 297.08 1143.79 321.75 1060.97 346.77 1044.34 375.69 1096.16 408.85 1196.21 443.01 1303.98 481.99 1380.3 525.77 1400.73 570.22 1357.26 618.68 1265.8 669.75 1153.19 718.5 1053.44 766.34 992.14 810.11 981.9 845.37 1020.53 871.04 1091.62 883.66 1176.81 882.51 1249.57 865.87 1292.57 833.91 1298.49 792.75 1264.87 743.61 1200.68 692.94 1115.64 651.53 1026.1 623.65 945.04 616.82 878.84 636.14 835.76 681.63 815.77 750.56 817.43 833.34 835.45 920.16 862.94 997.14 898.78 1050.19 933.48 1070.4 962.79 1052.5 989.47 1001.38 1006.87 925.74 1015.07 841.9 1018.32 771.73 1013.82 730.37 1003.49 730.35 990.23 774.5 973.73 853.91 955.65 950.86 936.79 1041.37 917.91 1102.8 899.68 1117.91 881.46 1082.68 864.32 1006.58 847.68 910.43 830.26 818.01 811.78 751.91 790.67 726.26 766.63 745.74 737.36 802.71 701.05 881.33 659.79 964.98 610.02 1032.11 551.75 1068.68 490.85 1068.78 425.35 1031.5 359.59 965.25 302.17 880.82 255.1 793.52 225.35 716.72 217.26 659.16 233.21 628.04 273.33 623.71 328.31 644.58 392.82 683.26 453.98 731.24 494.28 784.07 505.15 830.92 477.71 866.23 413.19 889.32 320.13 895.55 215.97 885.97 125.91 862.45 69.61 827.18 63.59 784.09 108.64 733.9 193.53 681.7 292.79 630.44 370.88 578.27 402.5 530.08 371.78 486.79 285.17 445.01 168.69 408.35 61.61 376.47 2.76 345.89 14.02 319.16 93.24 295.69 208.39 272.65 316.19 252.1 371.9 233.87 350.36 215.64 262.65 200.18 146.09 187.72 44.92 175.68 0.22 167.43 27.07 163.63 114.76 161.14 231.33 164.04 336.48 172.75 397.69 182.98 397.58 198.79 341.93 219.37 249.9 239.05 155.22 260.45 87.45 280.73 64.09 293.89 93.25 300.11 165.2 295.55 263.74 277.05 364.57 243.7 447.17 194.54 499.18 133.16 513.16 61.28 493.18 -15.43 445.32 -87.29 384.74 -148.73 325.02 -191.13 272.62 -208.32 239.78 -197.51 229.37 -158.94 240.18 -101.11 271.09 -31.48 316.31 36.69 373.5 86.69 434.95 109.13 495.53 95.68 556.68 45.77 611.54 -33.21 658.98 -127.14 702.88 -216.05 739.48 -281.73 769.94 -308.27 797.8 -289.67 821.57 -228.95 842.6 -140.14 862.87 -47.59 881.87 26.66 900.09 61.92 918.32 46.83 935.34 -12.72 950.57 -99.62 970.64 -230 985.26 -272.11 973 -166.63 958.63 -72.51 936.14 15 906.58 79.49 877.58 110.75 846.93 105.4 819.67 68.61 804.37 7.9 802.51 -61.26 819.8 -125.07 858.29 -175.02 918.26 -200.22 996.74 -198.02 1082.53 -169.68 1168.14 -119.05 1239.88 -53.76 1283.75 20.79 1292.52 94.96 1262.03 162.19 1200.96 220.24 1120.42 264.01 1040.85 293.24 987.88 308.71 976.38 312.09 1016 306.76 1100.02 292.92 1209.56 275.88 1314.95 258.71 1383.96 239.22 1395.93 223.14 1345.01 211.75 1250.15 201.03 1142.27 195.81 1061.62 196.04 1041.8 197.24 1091.87 203.3 1196.64 213.78 1316.81 224.61 1406.37 239.22 1427.9 257.44Q1427.9 257.44 1427.9 257.44" opacity="0.25"></path><path d="M1379.89 496.42C1236.22 529.55 1036.09 577.26 1010.22 634.78 1176.12 687.71 1334.15 739.96 1317.3 777.7 1142.55 792.69 969.03 774.84 927.01 719.34 1026.16 651.71 1163.5 582.82 1233.07 551.03 1198.16 589.47 1077.5 699.9 936.53 853.08 811.3 978.22 739.26 1016.05 712.12 937.09 719.36 797.81 736.81 688.58 744.75 701.17 755.96 839.8 746.47 1007.41 713.33 1069.91 680.2 974.51 624.98 801.08 551.28 686.22 480.85 708.54 403.11 837.57 338.44 969.94 308.16 1021.09 325.63 953.54 399.78 813.26 489.69 665.22 562.77 575.66 554.25 561.95 441.25 614.39 264.62 691.97 130.96 757.04 138.48 800.99 282.28 803.77 432.74 774.86 425.3 723.53 248.41 662 69.72 603.81 82.81 542.04 276.22 492.58 419.89 459.44 225.92 418.68 292.16 406.66 454.18 401.18 338.04 372.67 177.05 315.33 121.98 220.3 215.04 104.16 388.23 -20.98 529.97 -116.86 581.12 -146.58 538.17 -96.31 456.08 17.22 369.04 123 327.32 160.83 333.5 85.39 374.99 -71.26 438.12 -219.15 501.3 -254.25 570.35 -152.19 624.25 14.52 657.38 109.92 695.93 -33.02 692.66 -175.07 707.18 52.54 758.42 155.79 854.71 147.68 992.82 57.05 1125.98 -61.62 1216.51 -132.77 1208.79 -127.77 1110.48 -52.56 976.58 63.9 918.02 182.6 1007.6 289.17 1198.31 361.59 1338.73 404.03 1300.63 423.71 1120.25 431.74 992.83 441.31 1076.67 446.28 1288.45 463.28 1379.89 496.42Q1379.89 496.42 1379.89 496.42" opacity="0.16"></path><path d="M1331.89 580.72C1114.62 622.09 1130 651.57 1298.45 619.32 1232.05 586.14 1065.69 540.11 917.17 495.93 865.46 479.95 922.64 500.61 1028.4 572.83 1128.58 685.34 1163.46 817.5 1130.2 924.75 1043.69 962.74 935.97 913.66 836.07 795.34 742.66 678.44 674.11 626.64 625.6 684.8 584.35 827.61 551.45 972.27 521.63 1021.92 491.8 941.82 466.47 787.42 451.48 660.19 443.74 632.66 458.04 710.74 499.77 835.64 547.98 940.96 606.59 964.31 647.13 901.31 634.43 778.8 556.73 646.87 417.46 546.86 272.61 495.02 180.08 494.44 200.73 525.24 318.2 578.55 457.81 626.51 502.35 656.92 303.55 679.23 253.64 632.74 467.89 589.68 395.22 559.86 210.16 528.1 99.88 491.14 163.73 449.36 344 394.14 486.85 320.64 491.79 238.55 374.65 141.47 241.22 42.19 178.82 -34.56 232.57 -76.82 361.13 -64.09 510.44 -3.16 616.24 93.39 659.86 184.86 646.42 216.82 601.8 166.74 556.14 39.57 508.48 -107.18 484.24 -202.25 483.07 -186.27 487.83 -70.57 507.39 77.79 537.21 157.92 567.03 108.3 605.7 -30.29 657.18 -161.61 714.59 -208.29 793.08 -139.54 892.42 -0.77 1075.22 130.52 873.41 -60.15 957.64 12.86 1122.11 103 1266.02 198.15 1282.97 283.01 1162 362.91 998.7 425.23 946.32 472.65 1068.07 515.76 1259.18 550.88 1331.9 580.71Q1331.89 580.72 1331.89 580.72" opacity="0.63"></path><path d="M1284.03 375.05C1096.78 407.28 997.92 405.98 1197.7 389.39 1246.07 389.87 1176.48 403.27 1037.55 441.2 894.47 505.74 812.86 598.63 807.83 709.73 867.92 811.59 951.31 885.26 1020.61 903.09 1067.31 859.73 1072.74 764.61 1047.12 654.18 999.24 585.08 942.26 589.78 889.51 678.81 833.39 815.36 790.17 935.75 763.66 973.78 737.15 907.96 728.61 775.02 734.73 646.36 737.49 581.1 746.25 603.5 748.18 690.75 727.86 804.15 678.77 886.8 591.22 909.1 481.06 868.21 359.61 778.02 264.78 669.46 235.06 561.36 285.24 479.02 400.71 428.2 512.04 405.99 557.85 405.88 490.05 414.96 263.3 441.25 331.46 447.61 516.03 415.48 459.63 388.98 299.87 348.45 169.17 295.63 161.94 243.38 284.08 181.34 445.74 116.03 551.06 61 545.34 17.45 454.44 -1.18 332.04 8.76 253.69 53.05 250.05 126.4 317.02 200.22 426.76 258.98 540.38 272.26 643.5 222.36 712.92 115.94 752.01 -16.88 768.39 -123.57 772.13 -161.06 776.48 -106.02 776.07 12.39 786.98 139.96 813.49 205.78 840 167.75 880.85 52.74 931.25 -73.58 976.9 -152.38 1021.39 -141.99 1050.95 -53.46 1057.8 76.4 1032.04 195.29 969.77 266.26 897.01 276.02 825.33 233.79 793.11 166.68 831.5 90.31 941.28 35.49 1091.28 11.8 1209.78 14.73 1239.27 44.99 1153.38 90.45 1011.16 148.16 904.1 206.02 921.56 256.41 1062.49 308.22 1227.63 348.55 1284.03 375.05Q1284.03 375.05 1284.03 375.05" opacity="0.78"></path><path d="M1235.89 209.45C1153.87 232.65 1003.91 254.84 879.85 278.22 848.75 304.7 919.54 338.07 1040.98 382.9 1152.36 436.41 1192.3 505.31 1149.94 587.78 1044.43 670.27 918.97 750.83 814.29 813.59 748.23 843.66 731.34 833.12 749.65 778.26 795.29 697.98 844 608.26 881.58 540.97 915.51 527.78 930.68 577.15 929.41 680.47 924.29 802.2 908.76 898.16 885.56 925.92 862.37 873.27 832.61 763.12 793.98 642.66 751.5 554.91 694.14 528.63 620.01 563.66 542.24 645.51 455.33 738.02 373.93 810.35 319.87 849.06 303.46 840.8 339.11 794.01 413.39 718.17 511.35 630.95 592.71 547.56 610.91 468.91 550.17 406.78 421.79 360.76 283.35 324.72 199.35 298.75 221.5 277.42 336.61 259.2 481.87 239.7 563.89 216.5 523.52 193.31 393 167.51 258.91 141.99 196.08 119.57 242.36 103.35 365.33 99.19 506.11 105.01 599 128.94 616.06 171.83 560.77 219.48 469.68 273.39 384.73 318.83 325.29 335.23 314.53 315.99 345.56 253.13 409.11 156.65 487.36 43.34 563.58 -55.51 641.33 -107.55 704.86 -94.49 753.02 -15.71 798.37 95.78 832.02 201.24 855.22 253.92 878.42 226.18 890.07 134.94 888.46 22.16 884.06 -72.22 862.73 -108.4 825.18 -78.22 789.16 6.05 749.11 116.57 721.3 221.02 726 300.03 770.04 338.08 859.88 338.41 975.22 306.05 1093.82 258.79 1173.29 212.06 1180.4 165.34 1108.32 134.64 984.56 121.32 878.58 116.69 845.47 125.52 917.22 142.78 1060.25 163.14 1195.49 186.25 1235.9 209.44Q1235.89 209.45 1235.89 209.45" opacity="0.26"></path><path d="M1187.89 349.32C1123.81 369.2 1000.6 399.29 877.46 438.71 804.27 478.36 807.37 527.17 874.86 582.61 979.57 635.01 1074.17 688.06 1126.9 734.31 1127.92 765.52 1077.02 777.86 994.69 764.35 895.33 728.83 803.59 670.12 731.9 597.52 679.14 532.71 649.66 485.87 635.94 474.55 634.84 508.54 637.3 583.89 636.03 685.69 637.26 786.5 629.21 858.97 609.33 877.92 589.44 837.21 558.67 750.04 519.95 645.39 483.72 551.04 445.09 491.63 411.74 477.03 391 507.15 387.74 567.22 409.86 637.73 450.91 708.45 514.09 758.88 587.39 782.49 643.67 781.59 670.99 755.73 649.28 713.51 575.84 658.05 463.41 599.13 344.12 543.65 262.06 486.81 247.65 438.11 313.16 399.14 428.63 360.87 547.81 331.57 611.89 311.68 584.66 291.8 484.36 282.28 362.71 283.05 269.61 284.53 248.26 297.06 301.22 319.45 407.15 340.47 526.02 366.65 620.59 391.47 671.83 403.04 671.97 400.36 634.63 375.2 570.23 325.53 504.81 251.52 453.98 160.11 409.39 29.94 441.79 -29.62 485.65 81.09 518.55 178.07 546.56 261.21 566.45 301.92 586.33 282.97 597.15 214.53 601.74 121.39 609.47 27.26 617.44 -36.77 632.97 -56.18 661.3 -30.28 707.5 34.38 776 119.89 857.46 213.19 951.43 295.48 1041.9 357.06 1105.31 396.62 1128.76 412.82 1098.24 412.26 1024.38 396.65 923.35 376.34 831.98 358.4 793.57 337.42 826.21 324.78 926.96 322.62 1056.28 320.7 1160.63 329.43 1187.9 349.31Q1187.89 349.32 1187.89 349.32" opacity="0.91"></path><path d="M1139.88 570.49C896.1 626.05 955.09 680.15 1071.17 575.43 1004.85 485.08 878.78 423.53 767.89 461.25 663.76 600.66 598.63 767.42 565.49 829.92 532.36 734.52 534.35 561.69 581.05 442.8 634.52 437.35 708.87 520.95 731.76 615.58 554.68 701.11 422.81 607.49 659.88 548.47 568.51 515.34 371.18 503.96 299.05 495.67 410.58 464.84 598.22 397.13 719.3 276.17 738.57 138.11 686.8 19.36 637.53 0.52 584.56 95.12 574.96 254.52 608.09 349.92 641.22 287.42 713.95 134.09 824.33 18.96 931.03 5.54 1034.53 102.23 1058.72 236.01 981.09 367.66 828.6 452.39 741.33 497.09 837.72 519.07 1048.46 537.35 1139.89 570.48Q1139.88 570.49 1139.88 570.49" opacity="0.81"></path><path d="M1091.89 518.19C990.44 544.7 818.63 545.62 706.85 519.41 710.23 489.78 801.21 436.48 900.42 381.56 979.62 363.86 997.15 395.72 973.52 492.4 927.49 624.19 880.78 743.9 854.27 781.92 827.76 716.1 823.97 583.9 824.05 458.21 801.74 381.84 742.84 373.52 628.89 408.77 494.94 474.66 375.84 530.14 353.02 557.51 445.38 578.54 606.44 573.64 707.89 547.13 652.31 520.62 499.72 475.02 378.74 408.05 356.58 334.74 444.92 237.88 572.9 137.24 701.75 67.25 784.4 47.45 826.03 104.39 845.05 210.64 858.46 332.1 884.97 397.92 911.47 359.9 948.57 250.93 975.5 138.57 979.82 61.33 938.56 57.59 844.46 110.03 751.22 199.69 690.98 294.36 732.54 369.94 872.93 442.09 1036.27 491.67 1091.9 518.18Q1091.89 518.19 1091.89 518.19" opacity="0.66"></path><path d="M1043.88 276.3C979.81 296.18 857.8 299.22 739.08 292.52 658.73 292.88 637.86 297.89 660 321.67 714.63 370.12 767.96 448.11 800.26 547.12 830.31 642.7 835.38 714.99 815.5 733.92 795.62 693.19 752.67 606.41 688.16 506.61 621.41 413 537.05 347.08 456.35 312.33 408.15 303.54 407.94 310.19 473.72 317.03 577.86 329.88 691.81 329.69 755.88 309.81 728.65 289.93 633.41 252.24 525.06 204.93 436.24 163.63 406.48 125.96 429.51 108.69 490.74 117.38 566.43 162.21 631.65 241.24 698.44 326.47 744.24 405.19 764.12 445.92 784.02 426.99 776.11 362.75 743.78 281.75 713.01 197.31 668.35 140.41 633.17 118.02 636.18 120.3 687.01 146.32 790.39 180.41 913.31 221.57 1016.63 256.41 1043.89 276.29Q1043.88 276.3 1043.88 276.3" opacity="0.39"></path><path d="M995.89 232.82C894.46 259.32 725.14 319.07 617.95 418.3 570.76 529.51 564.33 647.91 537.83 685.92 511.32 620.1 469.74 489.37 482.19 380.56 554.63 292.83 702.46 243.62 803.89 217.12 748.31 190.61 609.6 191.81 519.33 244.8 475.2 318.86 495.31 428.1 521.82 493.92 548.33 455.91 576.22 359 655.09 282.54 780.11 218.05 940.31 206.31 995.89 232.82Q995.89 232.82 995.89 232.82" opacity="0.60"></path></g></svg>