<svg xml:space="preserve" viewBox="0 0 100 100" y="0" x="0" xmlns="http://www.w3.org/2000/svg" id="圖層_1" version="1.1" preserveAspectRatio="xMidYMid" width="200" height="200" xmlns:xlink="http://www.w3.org/1999/xlink" style="display:block;background:rgb(255, 255, 255);width:200px;height:200px;;animation:none"><g class="ldl-scale" style="transform-origin-x:50%;transform-origin-y:50%;transform-origin-z:0px;transform:matrix(0.8, 0, 0, 0.8, 0, 0);;animation:none"><g class="ldl-ani"><g class="ldl-layer"><g class="ldl-ani" style="transform-origin-x:50px;transform-origin-y:50px;transform-origin-z:0px;transform:matrix(1.003333, 0, 0, 1.003333, 0, 0);animation-duration:1s;animation-timing-function:linear;animation-delay:-0.666667s;animation-iteration-count:infinite;animation-fill-mode:forwards;animation-play-state:paused;animation-name:animate;;animation:none"><path fill="#c33737" d="M72.621 69.543c-.796-4.105.037-8.651 2.229-12.161 2.088-3.343 5.342-5.663 8.925-6.366l8.726-1.71-8.675-1.996c-2.96-.682-6.364-1.658-9.168-3.734-2.87-2.125-4.77-5.218-5.211-8.489-.428-3.173.582-6.579 2.574-8.678l7.96-8.388-9.949 5.341a140.718 140.718 0 0 1-9.25 4.536c-.709.315-1.747.734-2.575.734-.539 0-.798-.172-.963-.324-.608-.553-.649-2.288-.668-3.123a48.608 48.608 0 0 0-.053-1.335c-.073-1.466-.113-2.273.506-4.943l2.286-9.842-5.4 8.292c-2.702 4.149-4.477 5.512-8.44 7.505-.502.253-.712.287-.851.287a1.48 1.48 0 0 1-.512-.121c-.747-.29-1.619-1.864-2.038-2.621l-.079-.142c-.67-1.206-1.185-2.419-1.685-4.737l-1.841-8.544-1.567 8.609c-.956 5.252-2.686 8.503-3.744 8.503-1.735-.01-3.398-2-5.006-3.925a71.931 71.931 0 0 0-.838-.991L16.535 8.693l8.003 14.735c2.308 4.248 3.151 6.384 3.933 11.465.474 3.085.312 5.178-.511 6.588-1.145 1.962-3.605 2.407-5.467 2.435L7.5 44.141l14.641 3.508c2.471.592 4.77 2.485 6.149 5.063 1.409 2.632 1.89 6.027 1.287 9.082-.907 4.602-3.957 8.177-7.552 12.044l-4.776 5.136 6.477-1.978a38.253 38.253 0 0 1 13.012-1.643c1.858.089 3.953.354 5.411 1.644 1.052.932 1.69 1.801.994 5.255l-1.823 9.052 4.948-7.556c4.681-7.148 12.622-8.794 16.94-9.14 3.95-.315 7.543.558 10.476 2.56l14.259 9.731-12.709-13.303c-1.938-2.017-2.288-2.38-2.613-4.053z" style="fill:rgb(195, 55, 55);;animation:none"></path></g></g>
<g class="ldl-layer"><g class="ldl-ani"><g><g class="ldl-layer"><g class="ldl-ani" style="transform-origin-x:50px;transform-origin-y:50px;transform-origin-z:0px;transform:matrix(0.935119, 0, 0, 0.935119, 0, 0);animation-duration:1s;animation-timing-function:linear;animation-delay:-0.833333s;animation-iteration-count:infinite;animation-fill-mode:forwards;animation-play-state:paused;animation-name:animate;;animation:none"><path fill="#f5e6c8" d="M50.5 57.556h-1a3.278 3.278 0 0 0-3.278 3.278v.055a3.278 3.278 0 0 0 3.278 3.278h1a3.278 3.278 0 0 0 3.278-3.278v-.055a3.278 3.278 0 0 0-3.278-3.278z" style="fill:rgb(245, 230, 200);;animation:none"></path></g></g>
<g class="ldl-layer"><g class="ldl-ani" style="transform-origin-x:50px;transform-origin-y:50px;transform-origin-z:0px;transform:matrix(0.91, 0, 0, 0.91, 0, 0);animation-duration:1s;animation-timing-function:linear;animation-delay:-1s;animation-iteration-count:infinite;animation-fill-mode:forwards;animation-play-state:paused;animation-name:animate;;animation:none"><path fill="#f5e6c8" d="M53.778 40.205c0-1.535-1.01-2.483-2.544-2.483h-2.467c-1.535 0-2.544.948-2.544 2.483v3.213c0 .113-.11.151-.097.263l1.077 9.693c.17 1.394 1.354 2.293 2.758 2.293h.05c1.401 0 2.525-.894 2.699-2.285l1.165-9.623c.014-.115-.096-.23-.096-.345v-3.209z" style="fill:rgb(245, 230, 200);;animation:none"></path></g></g></g></g></g>
<metadata xmlns:d="https://loading.io/stock/"></metadata></g></g>
<STYLE type="text/css">@keyframes animate { 0.00% {transform: translate(0.00px,0.00px) rotate(0.00deg) scale(0.91, 0.91) skew(0deg, 0.00deg) ;opacity: 1.00;}4.00% {transform: translate(0.00px,0.00px) rotate(0.00deg) scale(0.91, 0.91) ;}8.00% {animation-timing-function: cubic-bezier(0.69,0.60,0.35,0.27);transform: translate(0.00px,0.00px) rotate(0.00deg) scale(0.91, 0.91) ;}14.00% {transform: translate(0.00px,0.00px) rotate(0.00deg) scale(0.93, 0.93) ;}18.00% {transform: translate(0.00px,0.00px) rotate(0.00deg) scale(0.94, 0.94) ;}22.00% {animation-timing-function: cubic-bezier(0.67,0.66,0.34,0.33);transform: translate(0.00px,0.00px) rotate(0.00deg) scale(0.96, 0.96) ;}26.00% {transform: translate(0.00px,0.00px) rotate(0.00deg) scale(0.97, 0.97) ;}30.00% {transform: translate(0.00px,0.00px) rotate(0.00deg) scale(0.99, 0.99) ;}34.00% {animation-timing-function: cubic-bezier(0.65,0.71,0.32,0.38);transform: translate(0.00px,0.00px) rotate(0.00deg) scale(1.01, 1.01) ;}40.00% {animation-timing-function: cubic-bezier(0.64,0.74,0.31,0.41);transform: translate(0.00px,0.00px) rotate(0.00deg) scale(1.02, 1.02) ;}46.00% {animation-timing-function: cubic-bezier(0.60,0.91,0.23,0.63);transform: translate(0.00px,0.00px) rotate(0.00deg) scale(1.03, 1.03) ;}50.00% {transform: translate(0.00px,0.00px) rotate(0.00deg) scale(1.03, 1.03) ;}54.00% {transform: translate(0.00px,0.00px) rotate(0.00deg) scale(1.03, 1.03) ;}58.00% {animation-timing-function: cubic-bezier(0.69,0.60,0.35,0.27);transform: translate(0.00px,0.00px) rotate(0.00deg) scale(1.03, 1.03) ;}64.00% {transform: translate(0.00px,0.00px) rotate(0.00deg) scale(1.01, 1.01) ;}68.00% {transform: translate(0.00px,0.00px) rotate(0.00deg) scale(1.00, 1.00) ;}72.00% {animation-timing-function: cubic-bezier(0.67,0.66,0.34,0.33);transform: translate(0.00px,0.00px) rotate(0.00deg) scale(0.98, 0.98) ;}76.00% {animation-timing-function: cubic-bezier(0.66,0.68,0.33,0.35);transform: translate(0.00px,0.00px) rotate(0.00deg) scale(0.97, 0.97) ;}82.00% {animation-timing-function: cubic-bezier(0.65,0.71,0.32,0.38);transform: translate(0.00px,0.00px) rotate(0.00deg) scale(0.94, 0.94) ;}88.00% {animation-timing-function: cubic-bezier(0.65,0.73,0.31,0.40);transform: translate(0.00px,0.00px) rotate(0.00deg) scale(0.92, 0.92) ;}94.00% {animation-timing-function: cubic-bezier(0.63,0.80,0.28,0.48);transform: translate(0.00px,0.00px) rotate(0.00deg) scale(0.91, 0.91) ;}100.00% {animation-timing-function: cubic-bezier(0.63,0.80,0.28,0.48);transform: translate(0.00px,0.00px) rotate(0.00deg) scale(0.91, 0.91) ;} }</STYLE><!-- [ldio] generated by https://loading.io --></svg>